<?xml version="1.0" encoding="UTF-8"?>
<svg id="Layer_1" data-name="Layer 1" xmlns="http://www.w3.org/2000/svg" viewBox="0 0 109 117.9">
  <defs>
    <style>
      .cls-1, .cls-2 {
        fill: none;
      }

      .cls-1, .cls-2, .cls-3 {
        stroke: #000;
      }

      .cls-1, .cls-3 {
        stroke-miterlimit: 10;
      }

      .cls-2 {
        stroke-miterlimit: 10;
        stroke-width: 1px;
      }

      .cls-3 {
        fill: #fff;
        stroke-width: 2px;
      }
    </style>
  </defs>
  <g id="express">
    <polygon id="Rectangle_7577-2" data-name="Rectangle 7577-2" class="cls-3" points="55 116.9 55 44 1 44 1 1 108 1 108 116.9 55 116.9"/>
    <rect class="cls-1" x="93.29" y="57.65" width="14.81" height="37"/>
    <rect class="cls-1" x="95.1" y="60.9" width="5.1" height="30"/>
    <rect class="cls-1" x="62.37" y="62.15" width="26.74" height="28"/>
    <rect class="cls-1" x="73.1" y="65.15" width="14" height="22"/>
    <g>
      <line class="cls-1" x1="55.6" y1="101.15" x2="107.6" y2="101.15"/>
      <line class="cls-1" x1="56.1" y1="51.15" x2="108.1" y2="51.15"/>
    </g>
    <line class="cls-1" x1="102.6" y1="94.65" x2="102.6" y2="57.65"/>
    <line class="cls-1" x1="104.6" y1="51" x2="104.6" y2="1.09"/>
    <line class="cls-1" x1="58.09" y1="51.03" x2="58.09" y2="1.13"/>
    <line class="cls-1" x1="55.43" y1="50.6" x2="55.43" y2=".7"/>
    <line class="cls-1" x1="55" y1="17.65" x2="2" y2="17.65"/>
    <rect class="cls-1" x="12" y="31" width="32" height="9"/>
    <path class="cls-1" d="m25,23c0-1.66,1.34-3,3-3s3,1.34,3,3"/>
    <rect class="cls-2" x="27.22" y="1.68" width="3.46" height="46" transform="translate(2.06 51.58) rotate(-85.47)"/>
    <circle class="cls-1" cx="7" cy="31" r="3"/>
  </g>
</svg>