<?xml version="1.0" encoding="UTF-8"?><svg id="Layer_2" xmlns="http://www.w3.org/2000/svg" xmlns:xlink="http://www.w3.org/1999/xlink" viewBox="0 0 821.78 945.37"><defs><linearGradient id="GradientFill_1668" x1="545.8" y1="834.17" x2="686.75" y2="804.21" gradientUnits="userSpaceOnUse"><stop offset="0" stop-color="#b1aec2"/><stop offset="1" stop-color="#c1bdc8"/></linearGradient><linearGradient id="GradientFill_1670" x1="479.76" y1="867.5" x2="519.95" y2="940" gradientUnits="userSpaceOnUse"><stop offset="0" stop-color="#8889aa"/><stop offset="1" stop-color="#ada4bb"/></linearGradient><linearGradient id="GradientFill_1669" x1="476.45" y1="824.28" x2="476.45" y2="918.38" gradientUnits="userSpaceOnUse"><stop offset="0" stop-color="#8d91ae"/><stop offset="1" stop-color="#ada4b8"/></linearGradient><linearGradient id="GradientFill_1671" x1="225.53" y1="322.19" x2="247.99" y2="419.45" gradientUnits="userSpaceOnUse"><stop offset="0" stop-color="#e3d6e4"/><stop offset="1" stop-color="#cebcce"/></linearGradient><linearGradient id="GradientFill_1672" x1="230.98" y1="404.52" x2="229.83" y2="426.5" gradientUnits="userSpaceOnUse"><stop offset="0" stop-color="#cdbcd2"/><stop offset="1" stop-color="#988ba6"/></linearGradient><linearGradient id="GradientFill_1673" x1="143.37" y1="505.56" x2="179.94" y2="505.56" gradientUnits="userSpaceOnUse"><stop offset="0" stop-color="#707887"/><stop offset="1" stop-color="#6a687e"/></linearGradient><linearGradient id="GradientFill_1674" x1="180.95" y1="424.45" x2="183.26" y2="420.44" gradientUnits="userSpaceOnUse"><stop offset="0" stop-color="#48475e"/><stop offset="1" stop-color="#3b384d"/></linearGradient><linearGradient id="GradientFill_1675" x1="181.24" y1="307.65" x2="181.78" y2="292.29" gradientUnits="userSpaceOnUse"><stop offset="0" stop-color="#948bb2"/><stop offset="1" stop-color="#c0afcb"/></linearGradient><linearGradient id="GradientFill_1676" x1="179.7" y1="290.53" x2="177.46" y2="303.23" gradientUnits="userSpaceOnUse"><stop offset="0" stop-color="#c9b9cb"/><stop offset="1" stop-color="#5b5872"/></linearGradient><linearGradient id="GradientFill_1677" x1="175.68" y1="367.74" x2="177.45" y2="367.74" gradientUnits="userSpaceOnUse"><stop offset="0" stop-color="#7d778a"/><stop offset="1" stop-color="#423e5f"/></linearGradient><linearGradient id="GradientFill_1678" x1="314.3" y1="567.91" x2="375.55" y2="465.97" gradientUnits="userSpaceOnUse"><stop offset="0" stop-color="#998daa"/><stop offset=".32" stop-color="#9a8da8"/><stop offset=".38" stop-color="#a99eb4"/><stop offset=".45" stop-color="#bbaebe"/><stop offset=".49" stop-color="#a9a4ba"/><stop offset=".53" stop-color="#9d94b1"/><stop offset="1" stop-color="#847da3"/></linearGradient><linearGradient id="GradientFill_1679" x1="419" y1="341.57" x2="446.52" y2="293.91" gradientUnits="userSpaceOnUse"><stop offset="0" stop-color="#9287a4"/><stop offset=".39" stop-color="#9c8fa9"/><stop offset=".56" stop-color="#b2a5b7"/><stop offset=".7" stop-color="#b8acbd"/><stop offset=".84" stop-color="#a59db5"/><stop offset="1" stop-color="#9a97b1"/></linearGradient><linearGradient id="GradientFill_1679-2" x1="407.15" y1="331.52" x2="431.89" y2="288.68" xlink:href="#GradientFill_1679"/><linearGradient id="linear-gradient" x1="406.88" y1="331.71" x2="431.46" y2="289.14" gradientUnits="userSpaceOnUse"><stop offset="0" stop-color="#8f85a2"/><stop offset=".39" stop-color="#998ca7"/><stop offset=".56" stop-color="#aea1b4"/><stop offset=".7" stop-color="#b4a8ba"/><stop offset=".84" stop-color="#a29ab2"/><stop offset="1" stop-color="#9794af"/></linearGradient><linearGradient id="linear-gradient-2" x1="406.61" y1="331.91" x2="431.04" y2="289.6" gradientUnits="userSpaceOnUse"><stop offset="0" stop-color="#8d82a0"/><stop offset=".39" stop-color="#9689a5"/><stop offset=".56" stop-color="#aa9db2"/><stop offset=".7" stop-color="#afa4b7"/><stop offset=".84" stop-color="#9e96b0"/><stop offset="1" stop-color="#9491ac"/></linearGradient><linearGradient id="linear-gradient-3" x1="406.34" y1="332.11" x2="430.62" y2="290.05" gradientUnits="userSpaceOnUse"><stop offset="0" stop-color="#8a809f"/><stop offset=".39" stop-color="#9387a3"/><stop offset=".56" stop-color="#a69aaf"/><stop offset=".7" stop-color="#aba0b4"/><stop offset=".84" stop-color="#9b93ad"/><stop offset="1" stop-color="#918eaa"/></linearGradient><linearGradient id="linear-gradient-4" x1="406.06" y1="332.3" x2="430.19" y2="290.51" gradientUnits="userSpaceOnUse"><stop offset="0" stop-color="#887d9d"/><stop offset=".39" stop-color="#9084a1"/><stop offset=".56" stop-color="#a296ac"/><stop offset=".7" stop-color="#a69bb1"/><stop offset=".84" stop-color="#978fab"/><stop offset="1" stop-color="#8e8aa7"/></linearGradient><linearGradient id="linear-gradient-5" x1="405.79" y1="332.5" x2="429.77" y2="290.97" gradientUnits="userSpaceOnUse"><stop offset="0" stop-color="#857b9b"/><stop offset=".39" stop-color="#8d819f"/><stop offset=".56" stop-color="#9e92a9"/><stop offset=".7" stop-color="#a297ae"/><stop offset=".84" stop-color="#948ca8"/><stop offset="1" stop-color="#8b87a5"/></linearGradient><linearGradient id="linear-gradient-6" x1="405.52" y1="332.7" x2="429.34" y2="291.43" gradientUnits="userSpaceOnUse"><stop offset="0" stop-color="#837999"/><stop offset=".39" stop-color="#8a7e9d"/><stop offset=".56" stop-color="#998ea7"/><stop offset=".7" stop-color="#9e93ab"/><stop offset=".84" stop-color="#9088a5"/><stop offset="1" stop-color="#8884a2"/></linearGradient><linearGradient id="linear-gradient-7" x1="405.25" y1="332.89" x2="428.92" y2="291.89" gradientUnits="userSpaceOnUse"><stop offset="0" stop-color="#807697"/><stop offset=".39" stop-color="#877c9b"/><stop offset=".56" stop-color="#958aa4"/><stop offset=".7" stop-color="#998fa8"/><stop offset=".84" stop-color="#8d85a3"/><stop offset="1" stop-color="#8581a0"/></linearGradient><linearGradient id="linear-gradient-8" x1="404.97" y1="333.09" x2="428.49" y2="292.35" gradientUnits="userSpaceOnUse"><stop offset="0" stop-color="#7d7496"/><stop offset=".39" stop-color="#847999"/><stop offset=".56" stop-color="#9187a1"/><stop offset=".7" stop-color="#958ba5"/><stop offset=".84" stop-color="#8982a0"/><stop offset="1" stop-color="#827e9e"/></linearGradient><linearGradient id="linear-gradient-9" x1="404.7" y1="333.29" x2="428.07" y2="292.81" gradientUnits="userSpaceOnUse"><stop offset="0" stop-color="#7b7294"/><stop offset=".39" stop-color="#817697"/><stop offset=".56" stop-color="#8d839f"/><stop offset=".7" stop-color="#9187a2"/><stop offset=".84" stop-color="#867e9d"/><stop offset="1" stop-color="#7f7b9b"/></linearGradient><linearGradient id="linear-gradient-10" x1="404.43" y1="333.48" x2="427.64" y2="293.27" gradientUnits="userSpaceOnUse"><stop offset="0" stop-color="#786f92"/><stop offset=".39" stop-color="#7e7395"/><stop offset=".56" stop-color="#897f9c"/><stop offset=".7" stop-color="#8c839f"/><stop offset=".84" stop-color="#827b9b"/><stop offset="1" stop-color="#7c7899"/></linearGradient><linearGradient id="linear-gradient-11" x1="404.15" y1="333.68" x2="427.22" y2="293.73" gradientUnits="userSpaceOnUse"><stop offset="0" stop-color="#766d90"/><stop offset=".39" stop-color="#7a7192"/><stop offset=".56" stop-color="#857b99"/><stop offset=".7" stop-color="#887e9c"/><stop offset=".84" stop-color="#7f7798"/><stop offset="1" stop-color="#7a7496"/></linearGradient><linearGradient id="linear-gradient-12" x1="403.88" y1="333.88" x2="426.79" y2="294.19" gradientUnits="userSpaceOnUse"><stop offset="0" stop-color="#736a8e"/><stop offset=".39" stop-color="#776e90"/><stop offset=".56" stop-color="#817796"/><stop offset=".7" stop-color="#837a99"/><stop offset=".84" stop-color="#7b7496"/><stop offset="1" stop-color="#777194"/></linearGradient><linearGradient id="linear-gradient-13" x1="403.61" y1="334.07" x2="426.37" y2="294.65" gradientUnits="userSpaceOnUse"><stop offset="0" stop-color="#71688c"/><stop offset=".39" stop-color="#746b8e"/><stop offset=".56" stop-color="#7d7394"/><stop offset=".7" stop-color="#7f7696"/><stop offset=".84" stop-color="#787093"/><stop offset="1" stop-color="#746e91"/></linearGradient><linearGradient id="linear-gradient-14" x1="403.34" y1="334.27" x2="425.94" y2="295.11" gradientUnits="userSpaceOnUse"><stop offset="0" stop-color="#6e668b"/><stop offset=".39" stop-color="#71688c"/><stop offset=".56" stop-color="#797091"/><stop offset=".7" stop-color="#7b7293"/><stop offset=".84" stop-color="#746d90"/><stop offset="1" stop-color="#716b8f"/></linearGradient><linearGradient id="linear-gradient-15" x1="403.06" y1="334.47" x2="425.52" y2="295.57" gradientUnits="userSpaceOnUse"><stop offset="0" stop-color="#6b6389"/><stop offset=".39" stop-color="#6e668a"/><stop offset=".56" stop-color="#756c8e"/><stop offset=".7" stop-color="#766e90"/><stop offset=".84" stop-color="#716a8e"/><stop offset="1" stop-color="#6e688d"/></linearGradient><linearGradient id="linear-gradient-16" x1="402.79" y1="334.66" x2="425.09" y2="296.03" gradientUnits="userSpaceOnUse"><stop offset="0" stop-color="#696187"/><stop offset=".39" stop-color="#6b6388"/><stop offset=".56" stop-color="#70688c"/><stop offset=".7" stop-color="#726a8d"/><stop offset=".84" stop-color="#6d668b"/><stop offset="1" stop-color="#6b658a"/></linearGradient><linearGradient id="linear-gradient-17" x1="402.52" y1="334.86" x2="424.67" y2="296.49" gradientUnits="userSpaceOnUse"><stop offset="0" stop-color="#665f85"/><stop offset=".39" stop-color="#686086"/><stop offset=".56" stop-color="#6c6489"/><stop offset=".7" stop-color="#6e668a"/><stop offset=".84" stop-color="#6a6388"/><stop offset="1" stop-color="#686288"/></linearGradient><linearGradient id="linear-gradient-18" x1="402.25" y1="335.05" x2="424.25" y2="296.95" gradientUnits="userSpaceOnUse"><stop offset="0" stop-color="#645c83"/><stop offset=".39" stop-color="#655d84"/><stop offset=".56" stop-color="#686086"/><stop offset=".7" stop-color="#696187"/><stop offset=".84" stop-color="#665f86"/><stop offset="1" stop-color="#655e85"/></linearGradient><linearGradient id="linear-gradient-19" x1="401.97" y1="335.25" x2="423.82" y2="297.41" gradientUnits="userSpaceOnUse"><stop offset="0" stop-color="#615a82"/><stop offset=".39" stop-color="#625b82"/><stop offset=".56" stop-color="#645d83"/><stop offset=".7" stop-color="#655d84"/><stop offset=".84" stop-color="#635c83"/><stop offset="1" stop-color="#625b83"/></linearGradient><linearGradient id="linear-gradient-20" x1="401.7" y1="335.45" x2="423.4" y2="297.87" gradientUnits="userSpaceOnUse"><stop offset="0" stop-color="#5f5780"/><stop offset=".39" stop-color="#5f5880"/><stop offset=".56" stop-color="#605981"/><stop offset=".7" stop-color="#605981"/><stop offset=".84" stop-color="#5f5881"/><stop offset="1" stop-color="#5f5880"/></linearGradient><linearGradient id="GradientFill_1700" x1="452.09" y1="458.14" x2="450.3" y2="464.81" gradientUnits="userSpaceOnUse"><stop offset="0" stop-color="#5e5877"/><stop offset="1" stop-color="#756f88"/></linearGradient><linearGradient id="GradientFill_1701" x1="436.81" y1="271.14" x2="441.41" y2="263.17" gradientUnits="userSpaceOnUse"><stop offset="0" stop-color="#9a97b1"/><stop offset="1" stop-color="#ada7bd"/></linearGradient><linearGradient id="GradientFill_1702" x1="527.85" y1="322.44" x2="529.86" y2="318.96" gradientUnits="userSpaceOnUse"><stop offset="0" stop-color="#6e758e"/><stop offset="1" stop-color="#9495a9"/></linearGradient><linearGradient id="GradientFill_1703" x1="349.21" y1="375.21" x2="343.64" y2="384.85" gradientUnits="userSpaceOnUse"><stop offset="0" stop-color="#29233a"/><stop offset=".17" stop-color="#3b354d"/><stop offset=".52" stop-color="#5c556e"/><stop offset=".81" stop-color="#706982"/><stop offset="1" stop-color="#78718a"/></linearGradient><linearGradient id="GradientFill_1704" x1="368.39" y1="472.78" x2="390.2" y2="436.48" gradientUnits="userSpaceOnUse"><stop offset="0" stop-color="#645c80"/><stop offset="1" stop-color="#797294"/></linearGradient><linearGradient id="GradientFill_1705" x1="334.44" y1="404.46" x2="341.63" y2="392.49" gradientUnits="userSpaceOnUse"><stop offset="0" stop-color="#564e71"/><stop offset="1" stop-color="#7e7896"/></linearGradient><linearGradient id="GradientFill_1706" x1="362.11" y1="508.97" x2="625.79" y2="772.65" gradientUnits="userSpaceOnUse"><stop offset="0" stop-color="#a19cbc"/><stop offset="1" stop-color="#404062"/></linearGradient><linearGradient id="GradientFill_1707" x1="262.92" y1="536.44" x2="279.82" y2="562.46" gradientUnits="userSpaceOnUse"><stop offset="0" stop-color="#beb0ca"/><stop offset="1" stop-color="#e7e2e7"/></linearGradient><linearGradient id="GradientFill_1708" x1="213.23" y1="580" x2="227.79" y2="511.51" gradientUnits="userSpaceOnUse"><stop offset="0" stop-color="#8685ab"/><stop offset="1" stop-color="#7c779e"/></linearGradient><linearGradient id="GradientFill_1709" x1="271.77" y1="584.9" x2="260.86" y2="603.79" gradientUnits="userSpaceOnUse"><stop offset="0" stop-color="#7f7b9a"/><stop offset="1" stop-color="#544a6f"/></linearGradient><linearGradient id="GradientFill_1710" x1="226.76" y1="543.77" x2="252.64" y2="543.77" gradientUnits="userSpaceOnUse"><stop offset="0" stop-color="#4d456d"/><stop offset="1" stop-color="#7a748f"/></linearGradient><linearGradient id="GradientFill_1711" x1="452.95" y1="428.11" x2="457.59" y2="442.41" gradientUnits="userSpaceOnUse"><stop offset="0" stop-color="#e4d9e3"/><stop offset=".32" stop-color="#d5cdda"/><stop offset=".55" stop-color="#c9c2d3"/><stop offset="1" stop-color="#857fa5"/></linearGradient><linearGradient id="GradientFill_1712" x1="342.44" y1="323.18" x2="348.02" y2="334.13" gradientUnits="userSpaceOnUse"><stop offset="0" stop-color="#6a7587"/><stop offset=".57" stop-color="#495d77"/><stop offset="1" stop-color="#242335"/></linearGradient><linearGradient id="GradientFill_1713" x1="334.2" y1="425.51" x2="337.05" y2="430.87" gradientUnits="userSpaceOnUse"><stop offset="0" stop-color="#897e9c"/><stop offset="1" stop-color="#6d6a90"/></linearGradient><linearGradient id="GradientFill_1714" x1="363.26" y1="413.51" x2="364.66" y2="416.04" gradientUnits="userSpaceOnUse"><stop offset="0" stop-color="#d4c2d7"/><stop offset="1" stop-color="#7a7698"/></linearGradient><linearGradient id="GradientFill_1715" x1="471.71" y1="449.71" x2="472.38" y2="448.6" gradientUnits="userSpaceOnUse"><stop offset="0" stop-color="#b4a6bd"/><stop offset="1" stop-color="#d9c2d6"/></linearGradient><linearGradient id="GradientFill_1715-2" x1="454.29" y1="439.65" x2="454.96" y2="438.54" xlink:href="#GradientFill_1715"/><linearGradient id="GradientFill_1715-3" x1="445.7" y1="434.72" x2="446.34" y2="433.6" xlink:href="#GradientFill_1715"/><linearGradient id="GradientFill_1715-4" x1="444.78" y1="441.32" x2="445.43" y2="440.21" xlink:href="#GradientFill_1715"/><linearGradient id="GradientFill_1715-5" x1="437.11" y1="429.73" x2="437.77" y2="428.62" xlink:href="#GradientFill_1715"/><linearGradient id="GradientFill_1715-6" x1="472.63" y1="443.11" x2="473.29" y2="442" xlink:href="#GradientFill_1715"/><linearGradient id="GradientFill_1715-7" x1="455.21" y1="433.05" x2="455.87" y2="431.94" xlink:href="#GradientFill_1715"/><linearGradient id="GradientFill_1715-8" x1="446.61" y1="428.12" x2="447.26" y2="427" xlink:href="#GradientFill_1715"/><linearGradient id="GradientFill_1715-9" x1="438.02" y1="423.13" x2="438.69" y2="422.02" xlink:href="#GradientFill_1715"/><linearGradient id="GradientFill_1715-10" x1="468.93" y1="459.13" x2="471.5" y2="455.18" xlink:href="#GradientFill_1715"/><linearGradient id="GradientFill_1715-11" x1="451.51" y1="449.07" x2="454.07" y2="445.12" xlink:href="#GradientFill_1715"/><linearGradient id="GradientFill_1715-12" x1="434.32" y1="439.15" x2="436.89" y2="435.2" xlink:href="#GradientFill_1715"/><linearGradient id="GradientFill_1715-13" x1="442" y1="450.71" x2="444.57" y2="446.76" xlink:href="#GradientFill_1715"/><linearGradient id="GradientFill_1716" x1="455.77" y1="357.85" x2="462.66" y2="369.79" gradientUnits="userSpaceOnUse"><stop offset="0" stop-color="#353150"/><stop offset=".2" stop-color="#4f4a71"/><stop offset=".6" stop-color="#6d688c"/><stop offset="1" stop-color="#7c7598"/></linearGradient><linearGradient id="GradientFill_1717" x1="442.71" y1="337.56" x2="442.71" y2="372.44" gradientUnits="userSpaceOnUse"><stop offset="0" stop-color="#2d2847"/><stop offset="1" stop-color="#27223f"/></linearGradient><linearGradient id="GradientFill_1718" x1="440.47" y1="369.37" x2="461.18" y2="368.65" gradientUnits="userSpaceOnUse"><stop offset="0" stop-color="#524e72"/><stop offset="1" stop-color="#88809c"/></linearGradient><linearGradient id="GradientFill_1719" x1="453.59" y1="382.07" x2="456.73" y2="376.85" gradientUnits="userSpaceOnUse"><stop offset="0" stop-color="#4c4463"/><stop offset="1" stop-color="#544f6f"/></linearGradient><linearGradient id="GradientFill_1720" x1="463.11" y1="363.94" x2="465.42" y2="363.94" gradientUnits="userSpaceOnUse"><stop offset="0" stop-color="#514a72"/><stop offset="1" stop-color="#706c8c"/></linearGradient><linearGradient id="GradientFill_1721" x1="439.76" y1="352.24" x2="448.14" y2="352.24" gradientUnits="userSpaceOnUse"><stop offset="0" stop-color="#37314f"/><stop offset="1" stop-color="#7c738f"/></linearGradient><linearGradient id="GradientFill_1722" x1="464.27" y1="352.33" x2="465.86" y2="351.41" gradientUnits="userSpaceOnUse"><stop offset="0" stop-color="#574b70"/><stop offset="1" stop-color="#7c738f"/></linearGradient><linearGradient id="GradientFill_1723" x1="455.85" y1="347.42" x2="457.18" y2="345.12" gradientUnits="userSpaceOnUse"><stop offset="0" stop-color="#574b6a"/><stop offset="1" stop-color="#7c738f"/></linearGradient><linearGradient id="GradientFill_1724" x1="481.58" y1="384" x2="484.49" y2="376.79" gradientUnits="userSpaceOnUse"><stop offset="0" stop-color="#746f8d"/><stop offset="1" stop-color="#7b718e"/></linearGradient><linearGradient id="GradientFill_1725" x1="484.05" y1="366.63" x2="485.32" y2="364.44" gradientUnits="userSpaceOnUse"><stop offset="0" stop-color="#685d82"/><stop offset="1" stop-color="#6b6389"/></linearGradient><linearGradient id="GradientFill_1726" x1="366.23" y1="617.25" x2="367.45" y2="615.23" gradientUnits="userSpaceOnUse"><stop offset="0" stop-color="#7e76a3"/><stop offset="1" stop-color="#645d87"/></linearGradient><linearGradient id="GradientFill_1727" x1="239.28" y1="549.18" x2="243.47" y2="555.39" gradientUnits="userSpaceOnUse"><stop offset="0" stop-color="#a7a0c7"/><stop offset="1" stop-color="#9f97bf"/></linearGradient><linearGradient id="GradientFill_1728" x1="249.46" y1="548.56" x2="250.97" y2="547.58" gradientUnits="userSpaceOnUse"><stop offset="0" stop-color="#837bac"/><stop offset="1" stop-color="#595282"/></linearGradient><linearGradient id="GradientFill_1729" x1="261.83" y1="553.07" x2="260.42" y2="555.51" gradientUnits="userSpaceOnUse"><stop offset="0" stop-color="#534c79"/><stop offset="1" stop-color="#79739d"/></linearGradient><linearGradient id="GradientFill_1730" x1="259.78" y1="609.39" x2="265.32" y2="600.16" gradientUnits="userSpaceOnUse"><stop offset="0" stop-color="#9187a9"/><stop offset="1" stop-color="#81799d"/></linearGradient><linearGradient id="GradientFill_1731" x1="535.71" y1="696.55" x2="601.25" y2="774.66" gradientUnits="userSpaceOnUse"><stop offset="0" stop-color="#c5bad9"/><stop offset="1" stop-color="#8386b0"/></linearGradient><linearGradient id="GradientFill_1731-2" x1="501.6" y1="724.76" x2="567.55" y2="803.35" xlink:href="#GradientFill_1731"/><linearGradient id="linear-gradient-21" x1="501.62" y1="724.7" x2="567.35" y2="803.04" gradientUnits="userSpaceOnUse"><stop offset="0" stop-color="#c3b9d8"/><stop offset="1" stop-color="#8587b1"/></linearGradient><linearGradient id="linear-gradient-22" x1="501.64" y1="724.65" x2="567.16" y2="802.74" gradientUnits="userSpaceOnUse"><stop offset="0" stop-color="#c2b7d7"/><stop offset="1" stop-color="#8688b2"/></linearGradient><linearGradient id="linear-gradient-23" x1="501.66" y1="724.59" x2="566.97" y2="802.43" gradientUnits="userSpaceOnUse"><stop offset="0" stop-color="#c0b6d5"/><stop offset="1" stop-color="#888ab2"/></linearGradient><linearGradient id="linear-gradient-24" x1="501.68" y1="724.54" x2="566.79" y2="802.13" gradientUnits="userSpaceOnUse"><stop offset="0" stop-color="#bfb5d4"/><stop offset="1" stop-color="#898bb3"/></linearGradient><linearGradient id="linear-gradient-25" x1="501.7" y1="724.48" x2="566.6" y2="801.82" gradientUnits="userSpaceOnUse"><stop offset="0" stop-color="#bdb4d3"/><stop offset="1" stop-color="#8b8cb4"/></linearGradient><linearGradient id="linear-gradient-26" x1="501.72" y1="724.42" x2="566.42" y2="801.52" gradientUnits="userSpaceOnUse"><stop offset="0" stop-color="#bcb2d2"/><stop offset="1" stop-color="#8c8db5"/></linearGradient><linearGradient id="linear-gradient-27" x1="501.74" y1="724.37" x2="566.23" y2="801.22" gradientUnits="userSpaceOnUse"><stop offset="0" stop-color="#bab1d1"/><stop offset="1" stop-color="#8e8eb5"/></linearGradient><linearGradient id="linear-gradient-28" x1="501.76" y1="724.31" x2="566.05" y2="800.93" gradientUnits="userSpaceOnUse"><stop offset="0" stop-color="#b8b0cf"/><stop offset="1" stop-color="#9090b6"/></linearGradient><linearGradient id="linear-gradient-29" x1="501.78" y1="724.26" x2="565.86" y2="800.63" gradientUnits="userSpaceOnUse"><stop offset="0" stop-color="#b7aece"/><stop offset="1" stop-color="#9191b7"/></linearGradient><linearGradient id="linear-gradient-30" x1="501.8" y1="724.21" x2="565.68" y2="800.34" gradientUnits="userSpaceOnUse"><stop offset="0" stop-color="#b5adcd"/><stop offset="1" stop-color="#9392b8"/></linearGradient><linearGradient id="linear-gradient-31" x1="501.82" y1="724.16" x2="565.5" y2="800.05" gradientUnits="userSpaceOnUse"><stop offset="0" stop-color="#b4accc"/><stop offset="1" stop-color="#9493b8"/></linearGradient><linearGradient id="linear-gradient-32" x1="501.84" y1="724.1" x2="565.32" y2="799.76" gradientUnits="userSpaceOnUse"><stop offset="0" stop-color="#b2abcb"/><stop offset="1" stop-color="#9694b9"/></linearGradient><linearGradient id="linear-gradient-33" x1="501.85" y1="724.05" x2="565.13" y2="799.47" gradientUnits="userSpaceOnUse"><stop offset="0" stop-color="#b1a9ca"/><stop offset="1" stop-color="#9795ba"/></linearGradient><linearGradient id="linear-gradient-34" x1="501.87" y1="724" x2="564.95" y2="799.18" gradientUnits="userSpaceOnUse"><stop offset="0" stop-color="#afa8c8"/><stop offset="1" stop-color="#9997bb"/></linearGradient><linearGradient id="linear-gradient-35" x1="501.89" y1="723.95" x2="564.77" y2="798.9" gradientUnits="userSpaceOnUse"><stop offset="0" stop-color="#ada7c7"/><stop offset="1" stop-color="#9b98bb"/></linearGradient><linearGradient id="linear-gradient-36" x1="501.9" y1="723.91" x2="564.59" y2="798.62" gradientUnits="userSpaceOnUse"><stop offset="0" stop-color="#aca5c6"/><stop offset="1" stop-color="#9c99bc"/></linearGradient><linearGradient id="linear-gradient-37" x1="501.91" y1="723.86" x2="564.41" y2="798.34" gradientUnits="userSpaceOnUse"><stop offset="0" stop-color="#aaa4c5"/><stop offset="1" stop-color="#9e9abd"/></linearGradient><linearGradient id="linear-gradient-38" x1="501.93" y1="723.81" x2="564.22" y2="798.06" gradientUnits="userSpaceOnUse"><stop offset="0" stop-color="#a9a3c4"/><stop offset="1" stop-color="#9f9bbe"/></linearGradient><linearGradient id="linear-gradient-39" x1="501.94" y1="723.77" x2="564.04" y2="797.78" gradientUnits="userSpaceOnUse"><stop offset="0" stop-color="#a7a2c2"/><stop offset="1" stop-color="#a19dbe"/></linearGradient><linearGradient id="linear-gradient-40" x1="501.95" y1="723.72" x2="563.86" y2="797.51" gradientUnits="userSpaceOnUse"><stop offset="0" stop-color="#a6a0c1"/><stop offset="1" stop-color="#a29ebf"/></linearGradient><linearGradient id="GradientFill_1752" x1="635.66" y1="714.81" x2="640.54" y2="714.81" gradientUnits="userSpaceOnUse"><stop offset="0" stop-color="#5f6679"/><stop offset="1" stop-color="#8f91a5"/></linearGradient><linearGradient id="GradientFill_1753" x1="532.17" y1="769.27" x2="492.71" y2="769.27" gradientUnits="userSpaceOnUse"><stop offset="0" stop-color="#5f6679"/><stop offset=".17" stop-color="#616679"/><stop offset=".35" stop-color="#525468"/><stop offset=".54" stop-color="#55586b"/><stop offset=".7" stop-color="#5b5e71"/><stop offset=".87" stop-color="#696a7d"/><stop offset="1" stop-color="#6d6e80"/></linearGradient><linearGradient id="GradientFill_1754" x1="412.74" y1="732.92" x2="430.02" y2="732.92" gradientUnits="userSpaceOnUse"><stop offset="0" stop-color="#3e4059"/><stop offset=".31" stop-color="#515269"/><stop offset=".72" stop-color="#656679"/><stop offset="1" stop-color="#6d6e80"/></linearGradient><linearGradient id="GradientFill_1755" x1="506.83" y1="678.55" x2="544.2" y2="745.97" gradientUnits="userSpaceOnUse"><stop offset="0" stop-color="#e6e0ea"/><stop offset="1" stop-color="#e9e8ef"/></linearGradient><linearGradient id="GradientFill_1756" x1="479.14" y1="677.31" x2="484.83" y2="687.57" gradientUnits="userSpaceOnUse"><stop offset="0" stop-color="#9396c0"/><stop offset="1" stop-color="#a0a0c6"/></linearGradient><linearGradient id="GradientFill_1757" x1="517.74" y1="300.08" x2="518.16" y2="324.6" gradientUnits="userSpaceOnUse"><stop offset="0" stop-color="#4e5668"/><stop offset="1" stop-color="#3a3f57"/></linearGradient><linearGradient id="GradientFill_1758" x1="445.3" y1="267.88" x2="434.35" y2="286.84" gradientUnits="userSpaceOnUse"><stop offset="0" stop-color="#6e6e7d"/><stop offset="1" stop-color="#686776"/></linearGradient><linearGradient id="GradientFill_735" x1="452.36" y1="65.29" x2="572.02" y2="65.29" gradientUnits="userSpaceOnUse"><stop offset="0" stop-color="#a3c982"/><stop offset=".03" stop-color="#93c757"/><stop offset=".44" stop-color="#93c757"/><stop offset=".47" stop-color="#85c04e"/><stop offset=".53" stop-color="#6fb344"/><stop offset=".59" stop-color="#7cbd5b"/><stop offset=".96" stop-color="#7cbd5b"/><stop offset="1" stop-color="#94c18c"/></linearGradient><linearGradient id="GradientFill_780" x1="502.05" y1="34.11" x2="520.08" y2="34.11" gradientUnits="userSpaceOnUse"><stop offset="0" stop-color="#f5faf8"/><stop offset="1" stop-color="#fff"/></linearGradient><linearGradient id="GradientFill_1759" x1="200.28" y1="768.92" x2="192.32" y2="782.17" gradientUnits="userSpaceOnUse"><stop offset="0" stop-color="#8f89a8"/><stop offset="1" stop-color="#d7c5d8"/></linearGradient></defs><g id="Layer_1-2"><path d="m387.15,890.08l9.4,26.16s61.24-21.14,61.99-21.52c.75-.38,6.28-3.09,6.28-3.09,0,0,71.6,41.34,83.08,47.96,11.48,6.63,18.47,6.14,23.46,5.3,4.99-.84,13.83-4.41,13.83-4.41,0,0,102.53-59.11,109.71-63.26,7.18-4.15,7.67-10.68-1.92-16.22-9.59-5.54-76.57-44.21-76.57-44.21,0,0,46.47-18.89,57.53-24.51,11.06-5.63,44.25-25.69,44.25-25.69l-14.64-8.45,4.25-1.9,24.98,14.42c4.53,2.62,11.97,2.76,17.94.61,6.24-1.95,12.96-4.21,19.11-6.43,1.49-.47,2.91-1.07,4.19-1.81l42.59-24.59c6.24-3.6,6.92-9.1,1.52-12.22l-45.91-26.5c-4.54-2.62-11.98-2.76-17.95-.61-6.24,1.96-12.94,4.2-19.09,6.42-1.49.47-2.91,1.07-4.19,1.81l-42.59,24.59c-6.24,3.6-6.92,9.1-1.52,12.22l7.82,4.52-4.66,1.67-79.77-46.05-223.39,61,.27,124.79Z" style="fill:url(#GradientFill_1668); fill-rule:evenodd;"/><path d="m387.15,890.08l9.4,26.16s61.24-21.14,61.99-21.52c.75-.38,6.28-3.09,6.28-3.09,0,0,71.6,41.34,83.08,47.96,6.11,3.53,10.95,5.04,14.89,5.55v-126.69h-175.79l.15,71.62Z" style="fill:url(#GradientFill_1670); fill-rule:evenodd;"/><polygon points="6.85 496.44 212.49 585.04 191.49 616.54 6.85 509.94 6.85 496.44" style="fill:#23212f; fill-rule:evenodd;"/><path d="m387.15,890.08l9.4,26.16s61.24-21.14,61.99-21.52c.75-.38,6.28-3.09,6.28-3.09,0,0,71.6,41.34,83.08,47.96,7.83,4.52,13.56,5.73,18.01,5.78v-126.91h-178.91l.15,71.62Z" style="fill:url(#GradientFill_1669); fill-rule:evenodd;"/><path d="m170.77,284c1.92-1.2,4.59-1.35,7.78.5,6.64,3.83,152.72,88.17,152.72,88.17,0,0-30.35,91.61-34.92,97.18-.23.28-.64.57-1.19.87-.11.07-.23.14-.36.21-.11.07-.23.14-.36.21-.11.07-.23.14-.36.21-.11.07-.23.14-.36.21-.11.07-.23.14-.36.21-.11.07-.23.14-.36.21-.11.07-.23.14-.36.21-.11.07-.23.14-.36.21-.11.07-.23.14-.37.21-.11.07-.23.14-.36.21-.11.07-.23.14-.36.21-.11.07-.23.14-.36.21-.11.07-.23.14-.36.21-.11.07-.23.14-.36.21-.11.07-.23.14-.36.21-.11.07-.23.14-.36.21-.11.07-.23.14-.36.21-.11.07-.23.14-.36.21-.11.07-.24.14-.37.21-.12.07-.25.15-.39.22-9.44,5.76-78.32,16.21-78.32,16.21l-49.66-83.07v-113.31c0-2.71,1.32-5.37,3.61-6.58l7.25-4.18Z" style="fill:#ebebf3; fill-rule:evenodd;"/><path d="m159.91,408.08v-113.31c0-4.94,4.4-9.71,11.03-5.88s152.72,88.17,152.72,88.17c0,0-30.35,91.61-34.92,97.18-4.57,5.57-79.18,16.89-79.18,16.89l-49.66-83.07Z" style="fill:url(#GradientFill_1671); fill-rule:evenodd;"/><path d="m185.01,422.57v-102.99c0-3.81,2.35-18.06,17.62-9.25,15.27,8.81,81.28,46.93,81.28,46.93l-13.98,2.48s-64.69-37.35-69.72-40.25c-5.04-2.91-12.42.84-12.42,6.39v9.85l5.8,91.79-1.34,3.16-1.24-4.65-3.22-49.16-.26,47.16-1.99,2.81-.52-4.26Z" style="fill:url(#GradientFill_1672); fill-rule:evenodd;"/><polygon points="344.54 514.67 191.49 603.04 6.85 496.44 159.91 408.08 344.54 514.67" style="fill:url(#GradientFill_1673); fill-rule:evenodd;"/><path d="m185.01,422.57l2.51,1.45-10.54,3.54-1.19-1.79,9.23-3.2h0Zm5.99,3.46l-35.66,20.59c-2.82,1.63-2.98,1.89-2.6,2.74.37.84,1.97.72,2.94.34.97-.38,1.4-1.1,1.4-1.1l36.51-21.08-2.58-1.49Z" style="fill:url(#GradientFill_1674); fill-rule:evenodd;"/><path d="m174.59,305.25v-10.27c0-3.15,1.46-7.35,5.92-10.39,4.46-3.04,10.79.23,12.86,1.43,2.07,1.2,82.14,47.42,82.14,47.42l-3.14,2.48s-80.32-46.37-83.16-48.01c-2.84-1.64-11.06-.85-11.06,7.62v131.31c-.25,1.04-3.51,1.13-3.51-.35,0-.6-.06-121.24-.06-121.24Z" style="fill:#e7d9e6; fill-rule:evenodd;"/><path d="m184.7,283.33c3.58-.07,7.2,1.83,8.67,2.68l80.51,46.48-.99-.21s-80.21-46.25-82.2-47.11c-1.98-.86-5.62-.97-6.94-.81-1.31.16-2.12.55-1.69.66.44.11.53.35.53.35,0,0-1.43.47-2.11.49-.68.02-.12-.59.91-1.08.73-.35.73-1.15,3.3-1.46Z" style="fill:#b8b0bf; fill-rule:evenodd;"/><path d="m187.5,287.33c-3.54-.62-9.35,1.07-9.35,8.2v131.31c-.14.58-1.22.86-2.14.74l.34-121.64s-.47-4.14-.33-7.61c.14-3.47.11-5.45,1.7-8.1,1.59-2.65,4.03-3.35,6.68-3.45,2.65-.09,3.11.54,3.11.54h0Z" style="fill:url(#GradientFill_1675); fill-rule:evenodd;"/><path d="m274.39,334.32l-.65.51c-22.16-12.81-81.22-46.96-82.17-47.43-1.17-.58-5.81-3.08-5.81-3.08,0,0-.13-.28.28-.22.41.06,1.5.35,2.93.79,1.42.44,84.57,48.82,84.57,48.82l.86.6Z" style="fill:#efeff1; fill-rule:evenodd;"/><path d="m176.35,306.67v-.74s-.47-4.14-.33-7.61c.14-3.47.11-5.45,1.7-8.1,1.33-2.21,3.25-3.07,5.39-3.34-3.49,1.79-5.54,3.9-5.95,8.12-.23,2.39-.07,11.71-.07,11.71l-.74-.05Z" style="fill:url(#GradientFill_1676); fill-rule:evenodd;"/><path d="m176.66,427.6c-.96.06-2.01-.27-2.01-1.11l-.06-119.92c1.03.73,2.07,1.48,2.07,1.48v119.55Z" style="fill:#e5d9e3; fill-rule:evenodd;"/><path d="m178.16,421.08v5.75c-.25,1.04-3.51,1.13-3.51-.35v-19.9c.86-2.34,1.09-6.94,1.09-9.95v-88.05l1.24-.72s.45,98.51.49,102.94c.04,4.43.69,10.28.69,10.28Z" style="fill:url(#GradientFill_1677); fill-rule:evenodd;"/><path d="m225.48,401.35v2.56c0,.36.06,1.88,2.16,2.93,2.1,1.05,4.04-.66,6.24-1.93,2.2-1.27,40.29-23.26,40.29-23.26l-4.26-1.54s-39.76,22.95-40.23,23.23c-.47.27-.52.01-.52-.55s-.01-1.43-.01-1.43h-3.67Z" style="fill:#9088b9; fill-rule:evenodd;"/><path d="m112.99,336.41v2.56c0,.36.06,1.88,2.16,2.93,2.1,1.05,4.04-.66,6.24-1.93l55.59-32.09c.55-1.2-.23-1.69-.96-2.15-.88-.56-1.43-.47-1.43-.47l-57.39,33.13c-.47.27-.52.01-.52-.55s-.01-1.43-.01-1.43h-3.67Z" style="fill:#a297bf; fill-rule:evenodd;"/><path d="m177.08,306.73c-.06-.16-.16-.29-.28-.42,0,0-56.34,32.53-56.74,32.76-.4.23-1.23.36-1.68.22s-.76.1-.76.1c0,0-.23.62.47.79.69.17,1.38-.18,2.02-.55l56.98-32.9Z" style="fill:#eaedfe; fill-rule:evenodd;"/><path d="m176.67,306.18c-.19-.17-.43-.32-.65-.46-.37-.24-.69-.36-.92-.42l-57.22,33.22s-.3.52.11.82c.41.3,1.12.11,1.91-.38.72-.44,48.14-27.8,56.77-32.78Z" style="fill:#e0d5e3; fill-rule:evenodd;"/><path d="m112.99,338.41v.55c0,.36.06,1.88,2.16,2.93,1.37.68,2.67.2,4.02-.58-2.43.24-3.03-.87-3.12-1.31-.1-.56-.22-3.14-.22-3.14l-.7-.46h-.19l-1.33,1.81-.61.2Z" style="fill:#514e6d; fill-rule:evenodd;"/><path d="m112.99,336.41v2.56c0,.36.06,1.88,2.16,2.93.67.34,1.33.39,1.98.26-.17-.02-.36-.04-.56-.07-1.65-.22-2.38-2.49-2.27-2.5.11,0,.62-.41.67-.8.06-.38.06-1.88.06-1.88,0,0-.16-.22-.39-.51h-1.65Z" style="fill:#e2d1e1; fill-rule:evenodd;"/><path d="m225.48,401.35v2.56c0,.36.06,1.88,2.16,2.93,1.58.79,3.07.02,4.64-.95-3.06.84-6.18.75-5.23-3.49l-.37-1.05h-1.21Z" style="fill:#8f8a9e; fill-rule:evenodd;"/><path d="m225.48,401.35v1.96c.16-.05.3-.18.33-.47.09-.76.09-1.42.09-1.42l.17.48s-.06,1.31-.07,1.73c0,.31.5.78.97,1.06-.15-.57-.15-1.32.07-2.28l-.37-1.05h-1.21Z" style="fill:#e3d2e4; fill-rule:evenodd;"/><path d="m272.06,380.88l-2.13-.77-35.64,20.58c-2.14,1.4-3.62,2.37-4.08,2.69,0,0,.38.38.19.75-.19.38-.41,1.14.34.62.62-.44,31.12-17.99,41.32-23.86Z" style="fill:#e1d5e3; fill-rule:evenodd;"/><polygon points="173.92 631.78 2.11 507.82 0 497.16 2.53 495.7 215.78 618.82 173.92 631.78" style="fill:#a09ab6; fill-rule:evenodd;"/><polygon points="396.55 916.23 0 687.29 0 497.16 396.55 726.11 396.55 916.23" style="fill:#e3d5e4; fill-rule:evenodd;"/><polygon points="396.55 834.86 0 605.91 0 497.16 168.35 594.36 223.18 593.02 396.55 726.11 396.55 834.86" style="fill:#8e88a4; fill-rule:evenodd;"/><polygon points="396.55 726.11 255.12 644.46 168.35 594.36 168.45 593.98 168.74 592.87 169.2 591.07 169.83 588.65 170.62 585.64 171.54 582.09 172.6 578.05 173.76 573.57 175.03 568.69 176.4 563.47 177.83 557.95 179.34 552.18 180.9 546.2 182.5 540.06 184.13 533.82 185.77 527.52 187.42 521.21 189.06 514.93 190.67 508.73 192.26 502.66 193.8 496.78 195.28 491.11 196.69 485.73 198.01 480.66 199.24 475.96 200.36 471.69 201.36 467.87 202.23 464.57 202.96 461.83 203.52 459.7 203.92 458.22 204.13 457.45 204.26 457.03 204.42 456.58 204.6 456.11 204.81 455.61 205.04 455.08 205.29 454.54 205.57 453.98 205.86 453.4 206.18 452.8 206.52 452.2 206.88 451.58 207.25 450.96 207.65 450.33 208.05 449.7 208.48 449.06 208.92 448.43 209.37 447.79 209.84 447.17 210.32 446.54 210.81 445.93 211.31 445.33 211.82 444.74 212.34 444.16 212.87 443.61 213.41 443.07 213.96 442.55 214.51 442.06 215.06 441.59 215.62 441.15 216.18 440.74 216.75 440.36 217.32 440.01 218 439.62 218.91 439.09 220.02 438.45 221.32 437.7 222.79 436.85 224.42 435.91 226.2 434.89 228.09 433.79 230.1 432.63 232.2 431.42 234.38 430.16 236.63 428.86 238.91 427.54 241.23 426.21 243.56 424.86 245.89 423.51 248.2 422.18 250.48 420.86 252.71 419.58 254.88 418.33 256.96 417.13 258.94 415.98 260.81 414.9 262.55 413.89 264.15 412.97 265.59 412.14 266.84 411.42 267.91 410.8 268.77 410.31 269.4 409.94 269.79 409.72 269.92 409.64 498.12 541.39 497.99 541.47 497.6 541.7 496.97 542.06 396.65 725.73 396.55 726.11" style="fill:url(#GradientFill_1678); fill-rule:evenodd;"/><path d="m498.12,541.39l-228.2-131.75v-56.54l.05-.32.14-.95.22-1.53.3-2.07.37-2.57.43-3.03.49-3.45.55-3.82.59-4.16.63-4.45.67-4.71.7-4.92.73-5.09.74-5.22.76-5.31.76-5.36.77-5.37.76-5.34.75-5.27.73-5.15.71-5,.68-4.8.65-4.56.61-4.28.56-3.96.51-3.6.45-3.2.39-2.76.32-2.28.25-1.75.16-1.19.08-.58.04-.29.06-.33.09-.37.11-.41.13-.44.15-.48.17-.51.19-.53.21-.56.23-.58.26-.6.28-.62.3-.63.32-.64.34-.65.36-.66.38-.66.4-.67.42-.66.44-.66.46-.65.48-.64.5-.63.52-.62.54-.6.56-.58.58-.56.6-.54.62-.51.64-.48.66-.45.68-.41.71-.41.76-.44.81-.46.85-.49.89-.51.92-.53.95-.54.97-.56,1-.57,1.01-.58,1.03-.58,1.03-.59,1.04-.59,1.04-.59,1.04-.59,1.03-.58,1.02-.58,1-.57.98-.56.96-.54.93-.53.9-.51.86-.49.82-.46.77-.44.73-.41.67-.38.62-.35.55-.32.49-.28.42-.24.35-.2.33-.17.36-.15.39-.14.41-.12.44-.1.46-.07.47-.05.49-.03h.5s.51.03.51.03l.52.05.52.08,228.2,131.75c-27.54,32.56-54.15,129.54-60.69,149.51l-.05.32v56.54Z" style="fill:url(#GradientFill_1679); fill-rule:evenodd;"/><path d="m396.02,294.06s13.11,8.28,16.36,10.16c3.25,1.88,2.25,6.45.15,21.3-2.1,14.85-8.25,60.6-10.05,68.55-1.8,7.95-5.55,16.05-23.1-1.5-17.55-17.55,16.64-98.51,16.64-98.51Z" style="fill:url(#GradientFill_1679-2); fill-rule:evenodd;"/><path d="m395.78,294.46s13.06,8.25,16.31,10.13c3.24,1.87,2.24,6.43.15,21.23-2.09,14.8-8.15,60.13-9.94,68.05-1.79,7.92-5.53,16-23.02-1.5-17.49-17.49,16.51-97.91,16.51-97.91Z" style="fill:url(#linear-gradient); fill-rule:evenodd;"/><path d="m395.53,294.87s13.02,8.23,16.25,10.09c3.23,1.87,2.23,6.41.15,21.16-2.09,14.75-8.05,59.66-9.84,67.56-1.79,7.9-5.51,15.94-22.94-1.49-17.43-17.43,16.38-97.32,16.38-97.32Z" style="fill:url(#linear-gradient-2); fill-rule:evenodd;"/><path d="m395.29,295.27s12.98,8.2,16.2,10.06c3.22,1.86,2.23,6.38.15,21.08-2.08,14.7-7.95,59.19-9.73,67.06-1.78,7.87-5.49,15.89-22.87-1.49-17.37-17.37,16.26-96.72,16.26-96.72Z" style="fill:url(#linear-gradient-3); fill-rule:evenodd;"/><path d="m395.05,295.68s12.93,8.17,16.14,10.02c3.21,1.85,2.22,6.36.15,21.01-2.07,14.65-7.85,58.72-9.63,66.56-1.78,7.84-5.48,15.83-22.79-1.48-17.31-17.31,16.13-96.12,16.13-96.12Z" style="fill:url(#linear-gradient-4); fill-rule:evenodd;"/><path d="m394.81,296.08s12.89,8.14,16.09,9.99c3.2,1.85,2.21,6.34.15,20.94-2.06,14.6-7.75,58.25-9.52,66.07-1.77,7.82-5.46,15.78-22.71-1.47-17.25-17.25,16-95.52,16-95.52Z" style="fill:url(#linear-gradient-5); fill-rule:evenodd;"/><path d="m394.57,296.49s12.84,8.11,16.03,9.96c3.19,1.84,2.2,6.32.15,20.87s-7.66,57.78-9.42,65.57c-1.76,7.79-5.44,15.73-22.63-1.47-17.19-17.19,15.87-94.92,15.87-94.92Z" style="fill:url(#linear-gradient-6); fill-rule:evenodd;"/><path d="m394.33,296.89s12.8,8.09,15.98,9.92c3.18,1.83,2.2,6.3.15,20.8-2.05,14.5-7.56,57.31-9.31,65.07-1.76,7.76-5.42,15.67-22.55-1.46-17.14-17.14,15.75-94.33,15.75-94.33Z" style="fill:url(#linear-gradient-7); fill-rule:evenodd;"/><path d="m394.08,297.3s12.75,8.06,15.92,9.89c3.17,1.83,2.19,6.28.15,20.73-2.04,14.45-7.46,56.84-9.21,64.58-1.75,7.74-5.4,15.62-22.48-1.46-17.08-17.08,15.62-93.73,15.62-93.73Z" style="fill:url(#linear-gradient-8); fill-rule:evenodd;"/><path d="m393.84,297.7s12.71,8.03,15.87,9.85c3.16,1.82,2.18,6.25.15,20.65-2.04,14.4-7.36,56.37-9.1,64.08-1.75,7.71-5.38,15.56-22.4-1.45s15.49-93.13,15.49-93.13Z" style="fill:url(#linear-gradient-9); fill-rule:evenodd;"/><path d="m393.6,298.11s12.67,8,15.81,9.82c3.14,1.82,2.17,6.23.14,20.58-2.03,14.35-7.26,55.9-9,63.58-1.74,7.68-5.36,15.51-22.32-1.45-16.96-16.96,15.36-92.53,15.36-92.53Z" style="fill:url(#linear-gradient-10); fill-rule:evenodd;"/><path d="m393.36,298.51s12.62,7.97,15.76,9.78c3.13,1.81,2.17,6.21.14,20.51-2.02,14.3-7.16,55.43-8.89,63.09-1.73,7.65-5.34,15.45-22.24-1.44-16.9-16.9,15.24-91.93,15.24-91.93Z" style="fill:url(#linear-gradient-11); fill-rule:evenodd;"/><path d="m393.12,298.92s12.58,7.95,15.7,9.75c3.12,1.8,2.16,6.19.14,20.44-2.01,14.25-7.06,54.96-8.79,62.59-1.73,7.63-5.33,15.4-22.17-1.44-16.84-16.84,15.11-91.34,15.11-91.34Z" style="fill:url(#linear-gradient-12); fill-rule:evenodd;"/><path d="m392.88,299.32s12.53,7.92,15.65,9.72c3.11,1.8,2.15,6.17.14,20.37-2.01,14.2-6.96,54.49-8.68,62.09-1.72,7.6-5.31,15.35-22.09-1.43-16.78-16.78,14.98-90.74,14.98-90.74Z" style="fill:url(#linear-gradient-13); fill-rule:evenodd;"/><path d="m392.63,299.73s12.49,7.89,15.59,9.68c3.1,1.79,2.14,6.15.14,20.29-2,14.15-6.86,54.02-8.58,61.6-1.71,7.57-5.29,15.29-22.01-1.43-16.72-16.72,14.86-90.14,14.86-90.14Z" style="fill:url(#linear-gradient-14); fill-rule:evenodd;"/><path d="m392.39,300.13s12.45,7.86,15.54,9.65c3.09,1.78,2.14,6.12.14,20.22-1.99,14.1-6.77,53.55-8.47,61.1-1.71,7.55-5.27,15.24-21.93-1.42-16.66-16.66,14.73-89.54,14.73-89.54Z" style="fill:url(#linear-gradient-15); fill-rule:evenodd;"/><path d="m392.15,300.54s12.4,7.84,15.48,9.61c3.08,1.78,2.13,6.1.14,20.15-1.99,14.05-6.67,53.08-8.37,60.6-1.7,7.52-5.25,15.18-21.85-1.42-16.6-16.6,14.6-88.95,14.6-88.95Z" style="fill:url(#linear-gradient-16); fill-rule:evenodd;"/><path d="m391.91,300.94s12.36,7.81,15.42,9.58c3.07,1.77,2.12,6.08.14,20.08-1.98,14-6.57,52.61-8.26,60.1-1.7,7.49-5.23,15.13-21.78-1.41-16.54-16.54,14.47-88.35,14.47-88.35Z" style="fill:url(#linear-gradient-17); fill-rule:evenodd;"/><path d="m391.67,301.35s12.31,7.78,15.37,9.54c3.06,1.76,2.11,6.06.14,20.01-1.97,13.95-6.47,52.14-8.16,59.61-1.69,7.47-5.21,15.08-21.7-1.41-16.48-16.48,14.35-87.75,14.35-87.75Z" style="fill:url(#linear-gradient-18); fill-rule:evenodd;"/><path d="m391.43,301.75s12.27,7.75,15.31,9.51c3.05,1.76,2.11,6.04.14,19.93-1.97,13.9-6.37,51.67-8.05,59.11-1.68,7.44-5.19,15.02-21.62-1.4-16.42-16.42,14.22-87.15,14.22-87.15Z" style="fill:url(#linear-gradient-19); fill-rule:evenodd;"/><path d="m391.19,302.16s12.22,7.72,15.26,9.48c3.03,1.75,2.1,6.02.14,19.86-1.96,13.85-6.27,51.2-7.95,58.61-1.68,7.41-5.18,14.97-21.54-1.4-16.37-16.37,14.09-86.55,14.09-86.55Z" style="fill:url(#linear-gradient-20); fill-rule:evenodd;"/><path d="m390.94,302.56s12.18,7.7,15.2,9.44c3.02,1.75,2.09,5.99.14,19.79s-6.17,50.73-7.84,58.12c-1.67,7.39-5.16,14.91-21.46-1.39-16.31-16.31,13.96-85.96,13.96-85.96Z" style="fill:#5c557e; fill-rule:evenodd;"/><path d="m488.26,430.16s-3.81,32.79-4.56,36.84c-.75,4.05-1.33,8.34-1.33,8.34,0,0-.19,1.36-.3,2.14-.11.79-.4,8.1-8.59,3.37-8.19-4.73-41.6-24.02-43.86-25.32-2.26-1.31-8.58-8.18-6.11-22.58,2.48-14.4,64.75-2.79,64.75-2.79Z" style="fill:url(#GradientFill_1700); fill-rule:evenodd;"/><polygon points="312.49 211.19 313.22 210.78 314.23 210.21 315.23 209.64 316.21 209.08 317.17 208.54 318.1 208.01 318.99 207.51 319.85 207.02 320.67 206.55 321.44 206.11 322.17 205.7 322.84 205.32 323.46 204.97 324.01 204.65 324.5 204.37 324.92 204.13 325.27 203.93 325.6 203.76 325.95 203.61 326.34 203.47 326.75 203.36 327.19 203.26 327.64 203.19 328.12 203.14 328.6 203.11 329.11 203.11 329.62 203.13 330.13 203.19 330.65 203.27 558.86 335.02 558.33 334.94 557.82 334.89 557.31 334.86 556.81 334.86 556.32 334.89 555.84 334.94 555.39 335.01 554.95 335.11 554.54 335.23 554.16 335.36 553.8 335.52 553.47 335.69 553.13 335.89 552.7 336.13 552.22 336.41 551.66 336.72 551.04 337.07 550.37 337.46 549.65 337.87 548.87 338.31 548.05 338.77 547.19 339.26 546.3 339.77 545.37 340.29 544.41 340.83 543.43 341.39 542.43 341.96 541.42 342.53 540.69 342.95 312.49 211.19" style="fill:url(#GradientFill_1701); fill-rule:evenodd;"/><path d="m528.34,317.41l13.82,7.98c-2.23-.19-4.58-.1-6.87.45-5.4,1.3-23.51,8.19-23.51,8.19,0,0-.64-14.34,2.73-15.24,3.37-.9,13.82-1.38,13.83-1.38Z" style="fill:url(#GradientFill_1702); fill-rule:evenodd;"/><path d="m393.66,423.72s13.97-98.2,14.5-101.29c.53-3.09,1.56-10.12-.84-13.47-2.41-3.34-6.41-5.09-6.41-5.09l-112.79,51.62-.42,6.58,93.8,60.61,12.16,1.04Z" style="fill:url(#GradientFill_1703); fill-rule:evenodd;"/><polygon points="498.12 541.39 269.92 409.64 269.92 353.11 270.1 351.83 498.17 484.53 509.39 520.24 498.12 541.39" style="fill:url(#GradientFill_1704); fill-rule:evenodd;"/><path d="m422.99,440.79l59.39,34.55s-.19,1.36-.3,2.14c-.11.79-.4,8.1-8.59,3.37-8.19-4.73-41.6-24.02-43.86-25.32-1.81-1.04-6.19-5.63-6.64-14.75Z" style="fill:#645d7f; fill-rule:evenodd;"/><path d="m287.7,362.07l105.96,61.65c-.14.64-.31,1.4-.52,2.32-.87,3.97-2.85,4.31-6.09,2.44-3.25-1.88-19.92-11.5-19.92-11.5v40.92c0,4.34-1.01,5.85-3.56,4.38-2.55-1.47-65.52-37.83-69.42-40.08-3.9-2.25-3.52-6.27-3.52-6.27l18.68-5.83s-14.56-31.25-17.94-36.19c-3.37-4.94-3.66-11.84-3.66-11.84Z" style="fill:url(#GradientFill_1705); fill-rule:evenodd;"/><path d="m396.55,916.23v-190.13s34.53-132.59,35.78-136.91c1.25-4.31,7.13-13.94,13.19-17.44,6.06-3.5,52.6-30.37,52.6-30.37v-56.54s16.16-113.23,16.51-116.08c.34-2.84,4.4-13.43,11.72-17.66s23.83-13.53,27.12-15.44c3.3-1.9,12.44-1.19,12.44,9.25v473.52l-169.36,97.78Z" style="fill:url(#GradientFill_1706); fill-rule:evenodd;"/><path d="m218.1,502.61c1.13-4.5,7.97-18.12,19.54-11.44,11.57,6.68,142.85,82.55,154.2,89.1,11.35,6.55,10.05,22.8,9.15,26.25-.9,3.45-16.84,67.39-20.36,77.51-3.52,10.13-11.54,14.55-19.72,9.83s-148.19-85.4-154.91-89.29c-6.73-3.88-10.35-16.87-7.12-28.95,3.22-12.08,19.24-73.01,19.24-73.01Z" style="fill:url(#GradientFill_1707); fill-rule:evenodd;"/><path d="m218.1,502.61c1.13-4.5,7.97-18.12,19.54-11.44l8.69,5.02-16.57,78.25s-23.3,9.73-31.42,3.42c.15-.75.32-1.5.52-2.25,3.22-12.08,19.24-73.01,19.24-73.01Z" style="fill:url(#GradientFill_1708); fill-rule:evenodd;"/><path d="m228.71,489.79c2.55-.79,5.54-.57,8.93,1.38,11.57,6.68,142.85,82.55,154.2,89.1,11.35,6.55,10.05,22.8,9.15,26.25-.69,2.64-10.16,40.63-16.17,62.9l-143.62-82.92c-10.79-6.23-14.81-17.7-14.81-24.75v-63.19c0-5.25,2.25-8.68,2.32-8.78Z" style="fill:#8f88a9; fill-rule:evenodd;"/><path d="m392.33,640.64c-.79,3.1-1.6,6.25-2.41,9.36l-35.89-20.72-.91-14.61,37.58,1.13,1.62,24.84Z" style="fill:#8881a2; fill-rule:evenodd;"/><path d="m390.71,633.21c6.86-5.29,8.94-23.62.06-17.41-8.94,6.25-4.53,11.96-4.53,11.96l4.48,5.45Z" style="fill:#8f88a9; fill-rule:evenodd;"/><path d="m390.71,633.21c6.63-5.14,8.66-23.17.06-17.37-8.95,6.04-4.53,11.92-4.53,11.92l4.48,5.45Z" style="fill:#8d86a8; fill-rule:evenodd;"/><path d="m390.71,633.21c6.4-5,8.37-22.72.06-17.32-8.98,5.84-4.53,11.87-4.53,11.87l4.48,5.45Z" style="fill:#8b84a6; fill-rule:evenodd;"/><path d="m390.71,633.21c6.18-4.85,8.07-22.29.06-17.28-9.01,5.64-4.53,11.83-4.53,11.83l4.48,5.45Z" style="fill:#8982a5; fill-rule:evenodd;"/><path d="m390.71,633.21c5.95-4.7,7.76-21.87.06-17.24-9.05,5.43-4.53,11.79-4.53,11.79l4.48,5.45Z" style="fill:#8780a3; fill-rule:evenodd;"/><path d="m390.71,633.21c5.72-4.55,7.45-21.45.06-17.19-9.09,5.24-4.53,11.75-4.53,11.75l4.48,5.45Z" style="fill:#857ea2; fill-rule:evenodd;"/><path d="m390.71,633.21c5.5-4.41,7.12-21.05.06-17.15-9.14,5.04-4.53,11.7-4.53,11.7l4.48,5.45Z" style="fill:#837ca0; fill-rule:evenodd;"/><path d="m390.71,633.21c5.27-4.26,6.79-20.65.06-17.11-9.2,4.84-4.53,11.66-4.53,11.66l4.48,5.45Z" style="fill:#817a9f; fill-rule:evenodd;"/><path d="m390.71,633.21c5.05-4.11,6.45-20.27.06-17.07-9.27,4.64-4.53,11.62-4.53,11.62l4.48,5.45Z" style="fill:#7f789e; fill-rule:evenodd;"/><path d="m390.71,633.21c4.82-3.97,6.1-19.89.06-17.02-9.34,4.44-4.53,11.58-4.53,11.58l4.48,5.45Z" style="fill:#7d769c; fill-rule:evenodd;"/><path d="m390.71,633.21c4.59-3.82,5.74-19.53.06-16.98-9.42,4.23-4.53,11.53-4.53,11.53l4.48,5.45Z" style="fill:#7b749b; fill-rule:evenodd;"/><path d="m390.71,633.21c4.37-3.67,5.38-19.18.06-16.94-9.52,4.02-4.53,11.49-4.53,11.49l4.48,5.45Z" style="fill:#7a7399; fill-rule:evenodd;"/><path d="m390.71,633.21c4.14-3.52,5-18.85.06-16.9-9.62,3.8-4.53,11.45-4.53,11.45l4.48,5.45Z" style="fill:#787198; fill-rule:evenodd;"/><path d="m390.71,633.21c3.91-3.38,4.62-18.53.06-16.85-9.73,3.57-4.53,11.4-4.53,11.4l4.48,5.45Z" style="fill:#766f96; fill-rule:evenodd;"/><path d="m390.71,633.21c3.69-3.23,4.24-18.22.06-16.81-9.85,3.32-4.53,11.36-4.53,11.36l4.48,5.45Z" style="fill:#746d95; fill-rule:evenodd;"/><path d="m390.71,633.21c3.46-3.08,3.84-17.92.06-16.77-9.98,3.05-4.53,11.32-4.53,11.32l4.48,5.45Z" style="fill:#726b94; fill-rule:evenodd;"/><path d="m390.71,633.21c3.23-2.94,3.45-17.64.06-16.73-10.13,2.74-4.53,11.28-4.53,11.28l4.48,5.45Z" style="fill:#706992; fill-rule:evenodd;"/><path d="m390.71,633.21c3.01-2.79,3.05-17.38.06-16.68-10.28,2.39-4.53,11.23-4.53,11.23l4.48,5.45Z" style="fill:#6e6791; fill-rule:evenodd;"/><path d="m390.71,633.21c2.78-2.64,2.65-17.12.06-16.64-10.44,1.95-4.53,11.19-4.53,11.19l4.48,5.45Z" style="fill:#6c658f; fill-rule:evenodd;"/><path d="m390.71,633.21c2.56-2.49,2.25-16.89.06-16.6-10.62,1.4-4.53,11.15-4.53,11.15l4.48,5.45Z" style="fill:#6a638e; fill-rule:evenodd;"/><path d="m390.71,633.21c2.33-2.35,1.86-16.66.06-16.55-10.78.65-4.53,11.11-4.53,11.11l4.48,5.45Z" style="fill:#68618c; fill-rule:evenodd;"/><path d="m390.71,633.21c2.1-2.2,1.49-16.45.06-16.51-10.89-.46-4.53,11.06-4.53,11.06l4.48,5.45Z" style="fill:#665f8b; fill-rule:evenodd;"/><path d="m390.71,633.21c.37-.29.73-.62,1.07-.97l-1.07-16.39c-8.86,6.23-4.48,11.92-4.48,11.92l4.48,5.45Z" style="fill:#665f8b; fill-rule:evenodd;"/><path d="m279.74,568.06c30.29-12.23,13.82-22.25,0-12.54-8.92,6.27-4.53,11.06-4.53,11.06l4.53,1.48Z" style="fill:#8f88a9; fill-rule:evenodd;"/><path d="m279.74,568.06c29.42-11.99,13.45-21.86,0-12.5-8.94,6.24-4.53,11.02-4.53,11.02.07.02,4.46,1.46,4.53,1.48Z" style="fill:#8e87a9; fill-rule:evenodd;"/><path d="m279.74,568.06c28.55-11.75,13.08-21.47,0-12.46-8.96,6.21-4.53,10.98-4.53,10.98.14.05,4.39,1.43,4.53,1.48Z" style="fill:#8e87a8; fill-rule:evenodd;"/><path d="m279.74,568.06c27.68-11.51,12.71-21.08,0-12.42-8.98,6.18-4.53,10.94-4.53,10.94.22.07,4.32,1.41,4.53,1.48Z" style="fill:#8d86a8; fill-rule:evenodd;"/><path d="m279.74,568.06c26.81-11.27,12.34-20.69,0-12.38-9,6.15-4.53,10.9-4.53,10.9.29.09,4.25,1.39,4.53,1.48Z" style="fill:#8c85a7; fill-rule:evenodd;"/><path d="m279.74,568.06c25.94-11.04,11.97-20.3,0-12.34-9.02,6.12-4.53,10.86-4.53,10.86.36.12,4.17,1.36,4.53,1.48Z" style="fill:#8c85a7; fill-rule:evenodd;"/><path d="m279.74,568c25.07-10.8,11.61-19.91,0-12.29-9.04,6.09-4.53,10.81-4.53,10.81.43.14,4.1,1.34,4.53,1.48Z" style="fill:#8b84a6; fill-rule:evenodd;"/><path d="m279.74,568c24.2-10.56,11.24-19.52,0-12.25-9.05,6.06-4.53,10.77-4.53,10.77.5.16,4.03,1.32,4.53,1.48Z" style="fill:#8a83a6; fill-rule:evenodd;"/><path d="m279.74,567.99c23.33-10.32,10.87-19.13,0-12.21-9.07,6.03-4.53,10.73-4.53,10.73.58.19,3.96,1.29,4.53,1.48Z" style="fill:#8a83a5; fill-rule:evenodd;"/><path d="m279.74,567.98c22.46-10.08,10.5-18.74,0-12.17-9.09,6-4.53,10.69-4.53,10.69.65.21,3.89,1.27,4.53,1.48Z" style="fill:#8982a5; fill-rule:evenodd;"/><path d="m279.74,567.98c21.59-9.84,10.13-18.35,0-12.13-9.11,5.97-4.53,10.65-4.53,10.65.72.23,3.81,1.25,4.53,1.48Z" style="fill:#8881a4; fill-rule:evenodd;"/><path d="m279.74,567.98c20.72-9.6,9.76-17.96,0-12.09-9.13,5.94-4.53,10.61-4.53,10.61.79.26,3.74,1.22,4.53,1.48Z" style="fill:#8881a4; fill-rule:evenodd;"/><path d="m279.74,567.98c19.85-9.36,9.39-17.57,0-12.04-9.15,5.91-4.53,10.56-4.53,10.56.86.28,3.67,1.2,4.53,1.48Z" style="fill:#8780a3; fill-rule:evenodd;"/><path d="m279.74,567.98c18.98-9.13,9.02-17.18,0-12-9.17,5.88-4.53,10.52-4.53,10.52.94.31,3.6,1.17,4.53,1.48Z" style="fill:#867fa3; fill-rule:evenodd;"/><path d="m279.74,567.98c18.1-8.89,8.66-16.79,0-11.96-9.19,5.85-4.53,10.48-4.53,10.48,1.01.33,3.53,1.15,4.53,1.48Z" style="fill:#867fa2; fill-rule:evenodd;"/><path d="m279.74,567.98c17.23-8.65,8.29-16.4,0-11.92-9.21,5.82-4.53,10.44-4.53,10.44,1.08.35,3.45,1.13,4.53,1.48Z" style="fill:#857ea2; fill-rule:evenodd;"/><path d="m279.74,567.99c16.36-8.41,7.92-16.01,0-11.88-9.22,5.79-4.53,10.4-4.53,10.4,1.15.38,3.38,1.1,4.53,1.48Z" style="fill:#847da1; fill-rule:evenodd;"/><path d="m279.74,568c15.49-8.17,7.55-15.62,0-11.84-9.24,5.76-4.53,10.36-4.53,10.36,1.22.4,3.31,1.08,4.53,1.48Z" style="fill:#847da1; fill-rule:evenodd;"/><path d="m279.74,568.01c14.62-7.93,7.18-15.23,0-11.79-9.26,5.73-4.53,10.31-4.53,10.31,1.3.42,3.24,1.06,4.53,1.48Z" style="fill:#837ca0; fill-rule:evenodd;"/><path d="m279.74,568.06c13.75-7.69,6.81-14.84,0-11.75-9.28,5.7-4.53,10.27-4.53,10.27,1.37.45,3.17,1.03,4.53,1.48Z" style="fill:#827ba0; fill-rule:evenodd;"/><path d="m279.74,568.06c12.88-7.46,6.44-14.45,0-11.71-9.3,5.67-4.53,10.23-4.53,10.23,1.44.47,3.09,1.01,4.53,1.48Z" style="fill:#827b9f; fill-rule:evenodd;"/><path d="m279.74,568.06c12.01-7.22,6.08-14.06,0-11.67-9.32,5.64-4.53,10.19-4.53,10.19,1.51.49,3.02.99,4.53,1.48Z" style="fill:#817a9f; fill-rule:evenodd;"/><path d="m279.74,568.06c11.58-7.1,5.89-13.86,0-11.65-9.33,5.62-4.53,10.17-4.53,10.17,1.44.47,3.09,1.01,4.53,1.48Z" style="fill:#80799e; fill-rule:evenodd;"/><path d="m279.74,568.06c11.14-6.98,5.71-13.66,0-11.63-9.34,5.61-4.53,10.15-4.53,10.15,1.37.45,3.17,1.03,4.53,1.48Z" style="fill:#7e779d; fill-rule:evenodd;"/><path d="m279.74,568.06c10.7-6.86,5.52-13.47,0-11.61-9.35,5.59-4.53,10.13-4.53,10.13,1.3.42,3.24,1.06,4.53,1.48Z" style="fill:#7d769c; fill-rule:evenodd;"/><path d="m279.74,568c10.27-6.74,5.34-13.27,0-11.59-9.36,5.58-4.53,10.11-4.53,10.11,1.22.4,3.31,1.08,4.53,1.48Z" style="fill:#7c759b; fill-rule:evenodd;"/><path d="m279.74,567.98c9.83-6.62,5.15-13.08,0-11.56-9.37,5.56-4.53,10.08-4.53,10.08,1.15.38,3.38,1.1,4.53,1.48Z" style="fill:#7b749a; fill-rule:evenodd;"/><path d="m279.74,567.97c9.4-6.5,4.97-12.88,0-11.54-9.38,5.55-4.53,10.06-4.53,10.06,1.08.35,3.45,1.13,4.53,1.48Z" style="fill:#797299; fill-rule:evenodd;"/><path d="m279.74,567.97c8.96-6.38,4.79-12.69,0-11.52-9.39,5.53-4.53,10.04-4.53,10.04,1.01.33,3.53,1.15,4.53,1.48Z" style="fill:#787198; fill-rule:evenodd;"/><path d="m279.74,567.96c8.53-6.26,4.6-12.49,0-11.5-9.39,5.52-4.53,10.02-4.53,10.02.94.31,3.6,1.17,4.53,1.48Z" style="fill:#777097; fill-rule:evenodd;"/><path d="m279.74,567.96c8.09-6.14,4.42-12.3,0-11.48-9.4,5.5-4.53,10-4.53,10,.86.28,3.67,1.2,4.53,1.48Z" style="fill:#756e96; fill-rule:evenodd;"/><path d="m279.74,567.95c7.66-6.02,4.23-12.1,0-11.46-9.41,5.49-4.53,9.98-4.53,9.98.79.26,3.74,1.22,4.53,1.48Z" style="fill:#746d95; fill-rule:evenodd;"/><path d="m279.74,567.95c7.22-5.9,4.05-11.91,0-11.44-9.42,5.47-4.53,9.96-4.53,9.96.72.23,3.81,1.25,4.53,1.48Z" style="fill:#736c95; fill-rule:evenodd;"/><path d="m279.74,567.96c6.79-5.79,3.86-11.71,0-11.42-9.43,5.46-4.53,9.94-4.53,9.94.65.21,3.89,1.27,4.53,1.48Z" style="fill:#726b94; fill-rule:evenodd;"/><path d="m279.74,567.97c6.35-5.67,3.68-11.52,0-11.4-9.44,5.44-4.53,9.92-4.53,9.92.58.19,3.96,1.29,4.53,1.48Z" style="fill:#706993; fill-rule:evenodd;"/><path d="m279.74,567.98c5.92-5.55,3.5-11.32,0-11.38-9.45,5.43-4.53,9.9-4.53,9.9.5.16,4.03,1.32,4.53,1.48Z" style="fill:#6f6892; fill-rule:evenodd;"/><path d="m279.74,567.99c5.48-5.43,3.31-11.13,0-11.36-9.46,5.41-4.53,9.88-4.53,9.88.43.14,4.1,1.34,4.53,1.48Z" style="fill:#6e6791; fill-rule:evenodd;"/><path d="m279.74,568c5.05-5.31,3.13-10.93,0-11.34-9.47,5.4-4.53,9.86-4.53,9.86.36.12,4.17,1.36,4.53,1.48Z" style="fill:#6c6590; fill-rule:evenodd;"/><path d="m279.74,568.06c4.61-5.19,2.94-10.74,0-11.31-9.48,5.38-4.53,9.83-4.53,9.83.29.09,4.25,1.39,4.53,1.48Z" style="fill:#6b648f; fill-rule:evenodd;"/><path d="m279.74,568.06c4.18-5.07,2.76-10.54,0-11.29-9.49,5.37-4.53,9.81-4.53,9.81.22.07,4.32,1.41,4.53,1.48Z" style="fill:#6a638e; fill-rule:evenodd;"/><path d="m279.74,568.06c3.74-4.95,2.57-10.35,0-11.27-9.5,5.35-4.53,9.79-4.53,9.79.14.05,4.39,1.43,4.53,1.48Z" style="fill:#69628d; fill-rule:evenodd;"/><path d="m279.74,568.06c3.3-4.83,2.39-10.15,0-11.25-9.51,5.34-4.53,9.77-4.53,9.77.07.02,4.46,1.46,4.53,1.48Z" style="fill:#67608c; fill-rule:evenodd;"/><path d="m279.74,568.06c2.87-4.71,2.21-9.96,0-11.23-9.52,5.32-4.53,9.75-4.53,9.75l4.53,1.48Z" style="fill:#665f8b; fill-rule:evenodd;"/><polygon points="279.74 555.51 282.87 610.56 252.24 592.87 251.28 575.51 279.74 555.51" style="fill:url(#GradientFill_1709); fill-rule:evenodd;"/><path d="m279.74,555.51l.7,12.25c-.44.19-.7.29-.7.29l-4.53-1.48s-4.39-4.8,4.53-11.06Z" style="fill:#665f8b; fill-rule:evenodd;"/><path d="m228.71,489.79c2.55-.79,5.54-.57,8.93,1.38,11.57,6.68,142.85,82.55,154.2,89.1,7,4.04,9.19,11.78,9.63,17.92-1.63-3.02-3.67-5.99-5.64-7.12-3.66-2.11-145.37-83.93-149.18-86.13-3.81-2.2-6.98-5.1-10.73-3.3-3.75,1.8-7.46,12.41-7.46,23.66s1.3,49.14,1.3,49.15c-2.36-4.53-3.37-9.17-3.37-12.7v-63.19c0-5.25,2.25-8.68,2.32-8.78Z" style="fill:url(#GradientFill_1710); fill-rule:evenodd;"/><polygon points="230.74 559.77 249.11 544.2 274.35 561.6 259.06 579.07 230.74 559.77" style="fill:#e5e2eb; fill-rule:evenodd;"/><path d="m418.6,429.12s-.68,9.29,6.2,13.27c6.89,3.98,41.18,23.77,45.5,26.27,4.32,2.5,8.11,1.03,8.86-4.22.75-5.25,4.16-29.05,4.66-32.65s-1.32-9.94-4.92-12.02c-3.6-2.08-46.11-26.62-47.93-27.67-1.82-1.05-6.75-.9-7.56,4.42-.81,5.31-4.81,32.61-4.81,32.61Z" style="fill:#e8dce8; fill-rule:evenodd;"/><path d="m480.12,467.98c1.79-.6,3.08-2.33,3.48-5.17.75-5.25,4.16-29.05,4.66-32.65.5-3.59-1.32-9.94-4.92-12.02-3.6-2.08-46.11-26.62-47.93-27.67-.93-.54-2.67-.76-4.27-.14l-4.23,1.55c-1.6.55-3.09,1.92-3.51,4.63-.81,5.31-4.81,32.61-4.81,32.61,0,0-.68,9.29,6.2,13.27,6.89,3.98,41.18,23.77,45.5,26.27,2.09,1.2,4.05,1.49,5.6.87l4.21-1.54Z" style="fill:url(#GradientFill_1711); fill-rule:evenodd;"/><path d="m418.6,429.12s-.68,9.29,6.2,13.27c6.89,3.98,41.18,23.77,45.5,26.27,4.32,2.5,8.11,1.03,8.86-4.22.75-5.25,4.16-29.05,4.66-32.65s-1.32-9.94-4.92-12.02c-3.6-2.08-46.11-26.62-47.93-27.67-1.82-1.05-6.75-.9-7.56,4.42-.81,5.31-4.81,32.61-4.81,32.61Z" style="fill:#e8dce8; fill-rule:evenodd;"/><path d="m228.62,400.61c.36.21.54.48.54.75s-.18.54-.54.75c-.36.21-.83.31-1.3.31s-.94-.1-1.3-.31c-.36-.21-.54-.48-.54-.75s.18-.54.54-.75c.36-.21.83-.31,1.3-.31.47,0,.94.1,1.3.31Z" style="fill:#e2d6e2; fill-rule:evenodd;"/><path d="m116.12,335.66c.36.21.54.48.54.75s-.18.54-.54.75c-.36.21-.83.31-1.3.31s-.94-.1-1.3-.31c-.36-.21-.54-.48-.54-.75s.18-.54.54-.75c.36-.21.83-.31,1.3-.31s.94.1,1.3.31Z" style="fill:#e2d6e2; fill-rule:evenodd;"/><path d="m387.03,409.02c1.51-.4,2.77-1.9,3.22-4.76.75-4.75,13.29-95.48,14.12-100.32.83-4.84-2.31-8.5-4.06-9.69-1.75-1.19-93.38-53.91-96-55.42-.85-.49-1.77-.52-2.62-.25-.84.23-1.72.49-2.55.75-1.83.51-3.39,2.36-3.39,3.86l-14.21,100.26s-1.5,7.38,4.8,11.02c6.29,3.63,92.3,53.29,94.92,54.8,1.09.63,2.24.82,3.27.5l2.52-.74Z" style="fill:url(#GradientFill_1712); fill-rule:evenodd;"/><path d="m295.74,243.19l-14.21,100.26s-1.5,7.38,4.8,11.02c6.29,3.63,92.3,53.29,94.92,54.8,2.61,1.51,5.6.53,6.35-4.22.75-4.75,13.29-95.48,14.12-100.32.83-4.84-2.31-8.5-4.06-9.69-1.75-1.19-93.38-53.91-96-55.42-2.62-1.51-5.91,1.39-5.91,3.58Z" style="fill:#706f7d; fill-rule:evenodd;"/><polygon points="285.74 348.17 382.46 404.01 397.21 301.01 300.49 245.17 285.74 348.17" style="fill:#fff; fill-rule:evenodd;"/><path d="m365.64,457.01l-1.43.82c-.61.37-1.41.35-2.28-.16l-69.66-40.22c-1.89-1.09-3.44-4.05-3.44-6.57v-38.01c0-1.4.48-2.39,1.23-2.8l1.41-.81c.61-.36,1.4-.34,2.27.16l69.66,40.22c1.89,1.09,3.44,4.05,3.44,6.57v38.01c0,1.38-.47,2.36-1.2,2.78Z" style="fill:url(#GradientFill_1713); fill-rule:evenodd;"/><path d="m362.09,410.58s2.12,1.43,3.41,3.11c1.29,1.68,1.28,2.47-1.19,3.02-2.47.55-3.41-4.48-3.41-4.48l1.19-1.64Z" style="fill:url(#GradientFill_1714); fill-rule:evenodd;"/><polygon points="475.95 444.91 475.34 451.24 474.91 452.28 469.34 448.22 469.4 445.66 475.95 444.91" style="fill:url(#GradientFill_1715); fill-rule:evenodd;"/><polygon points="458.53 434.86 457.92 441.18 457.49 442.22 451.91 438.17 451.98 435.6 458.53 434.86" style="fill:url(#GradientFill_1715-2); fill-rule:evenodd;"/><polygon points="449.94 429.9 449.33 436.22 448.9 437.26 443.32 433.2 443.39 430.64 449.94 429.9" style="fill:url(#GradientFill_1715-3); fill-rule:evenodd;"/><polygon points="449.02 436.5 448.41 442.82 447.98 443.86 442.41 439.81 442.48 437.24 449.02 436.5" style="fill:url(#GradientFill_1715-4); fill-rule:evenodd;"/><polygon points="441.35 424.93 440.74 431.26 440.31 432.3 434.73 428.24 434.8 425.68 441.35 424.93" style="fill:url(#GradientFill_1715-5); fill-rule:evenodd;"/><polygon points="476.87 438.31 476.26 444.64 475.83 445.67 470.25 441.62 470.32 439.06 476.87 438.31" style="fill:url(#GradientFill_1715-6); fill-rule:evenodd;"/><polygon points="459.44 428.25 458.83 434.58 458.4 435.62 452.83 431.56 452.9 429 459.44 428.25" style="fill:url(#GradientFill_1715-7); fill-rule:evenodd;"/><polygon points="450.85 423.29 450.24 429.62 449.81 430.65 444.24 426.6 444.3 424.04 450.85 423.29" style="fill:url(#GradientFill_1715-8); fill-rule:evenodd;"/><polygon points="442.26 418.33 441.65 424.66 441.22 425.69 435.64 421.64 435.71 419.08 442.26 418.33" style="fill:url(#GradientFill_1715-9); fill-rule:evenodd;"/><path d="m292.28,370.28l69.66,40.22c1.89,1.09,3.44,4.05,3.44,6.57v38.01c0,2.52-1.55,3.69-3.44,2.6l-69.66-40.22c-1.89-1.09-3.44-4.05-3.44-6.57v-38.01c0-2.52,1.55-3.69,3.44-2.6Z" style="fill:#e5d7e8; fill-rule:evenodd;"/><polygon points="475.04 451.52 474.43 457.84 474 458.88 468.45 455.67 468.49 452.26 475.04 451.52" style="fill:url(#GradientFill_1715-10); fill-rule:evenodd;"/><polygon points="457.62 441.46 457.01 447.78 456.58 448.82 451.02 445.61 451.07 442.21 457.62 441.46" style="fill:url(#GradientFill_1715-11); fill-rule:evenodd;"/><polygon points="440.43 431.54 439.82 437.86 439.39 438.9 433.84 435.69 433.88 432.28 440.43 431.54" style="fill:url(#GradientFill_1715-12); fill-rule:evenodd;"/><polygon points="475.38 438.86 469.46 435.44 468.94 438.55 474.86 441.97 475.38 438.86" style="fill:#9188a5; fill-rule:evenodd;"/><polygon points="457.96 428.8 452.04 425.38 451.52 428.49 457.44 431.91 457.96 428.8" style="fill:#9188a5; fill-rule:evenodd;"/><polygon points="449.37 423.84 443.45 420.42 442.93 423.53 448.85 426.95 449.37 423.84" style="fill:#9188a5; fill-rule:evenodd;"/><polygon points="440.77 418.88 434.85 415.46 434.34 418.57 440.26 421.99 440.77 418.88" style="fill:#9188a5; fill-rule:evenodd;"/><polygon points="474.47 445.46 468.55 442.04 468.03 445.15 473.95 448.57 474.47 445.46" style="fill:#9188a5; fill-rule:evenodd;"/><polygon points="457.04 435.4 451.12 431.98 450.61 435.09 456.53 438.51 457.04 435.4" style="fill:#9188a5; fill-rule:evenodd;"/><polygon points="448.45 430.44 442.53 427.02 442.02 430.13 447.94 433.55 448.45 430.44" style="fill:#9188a5; fill-rule:evenodd;"/><polygon points="447.54 437.04 441.62 433.62 441.1 436.73 447.02 440.15 447.54 437.04" style="fill:#9188a5; fill-rule:evenodd;"/><polygon points="439.86 425.48 433.94 422.06 433.42 425.17 439.34 428.59 439.86 425.48" style="fill:#9188a5; fill-rule:evenodd;"/><polygon points="473.55 452.06 467.63 448.64 467.12 451.75 473.04 455.17 473.55 452.06" style="fill:#9188a5; fill-rule:evenodd;"/><polygon points="456.13 442 450.21 438.58 449.69 441.69 455.61 445.11 456.13 442" style="fill:#9188a5; fill-rule:evenodd;"/><polygon points="438.95 432.08 433.03 428.66 432.51 431.77 438.43 435.19 438.95 432.08" style="fill:#9188a5; fill-rule:evenodd;"/><polygon points="475.38 438.86 476.87 438.31 476.35 441.42 474.86 441.97 475.38 438.86" style="fill:#5c5b83; fill-rule:evenodd;"/><polygon points="457.96 428.8 459.44 428.25 458.93 431.36 457.44 431.91 457.96 428.8" style="fill:#5c5b83; fill-rule:evenodd;"/><polygon points="449.37 423.84 450.85 423.29 450.34 426.4 448.85 426.95 449.37 423.84" style="fill:#5c5b83; fill-rule:evenodd;"/><polygon points="440.77 418.88 442.26 418.33 441.74 421.44 440.26 421.99 440.77 418.88" style="fill:#5c5b83; fill-rule:evenodd;"/><polygon points="474.47 445.46 475.95 444.91 475.44 448.02 473.95 448.57 474.47 445.46" style="fill:#5c5b83; fill-rule:evenodd;"/><polygon points="457.04 435.4 458.53 434.86 458.01 437.97 456.53 438.51 457.04 435.4" style="fill:#5c5b83; fill-rule:evenodd;"/><polygon points="448.45 430.44 449.94 429.9 449.42 433 447.94 433.55 448.45 430.44" style="fill:#5c5b83; fill-rule:evenodd;"/><polygon points="447.54 437.04 449.02 436.5 448.51 439.61 447.02 440.15 447.54 437.04" style="fill:#5c5b83; fill-rule:evenodd;"/><polygon points="439.86 425.48 441.35 424.93 440.83 428.04 439.34 428.59 439.86 425.48" style="fill:#5c5b83; fill-rule:evenodd;"/><polygon points="473.55 452.06 475.04 451.52 474.52 454.63 473.04 455.17 473.55 452.06" style="fill:#5c5b83; fill-rule:evenodd;"/><polygon points="456.13 442 457.62 441.46 457.1 444.57 455.61 445.11 456.13 442" style="fill:#5c5b83; fill-rule:evenodd;"/><polygon points="438.95 432.08 440.43 431.54 439.92 434.65 438.43 435.19 438.95 432.08" style="fill:#5c5b83; fill-rule:evenodd;"/><polygon points="475.38 438.86 476.87 438.31 470.95 434.9 469.46 435.44 475.38 438.86" style="fill:#a59abc; fill-rule:evenodd;"/><polygon points="457.96 428.8 459.44 428.25 453.52 424.84 452.04 425.38 457.96 428.8" style="fill:#a59abc; fill-rule:evenodd;"/><polygon points="449.37 423.84 450.85 423.29 444.93 419.88 443.45 420.42 449.37 423.84" style="fill:#a59abc; fill-rule:evenodd;"/><polygon points="440.77 418.88 442.26 418.33 436.34 414.91 434.85 415.46 440.77 418.88" style="fill:#a59abc; fill-rule:evenodd;"/><polygon points="474.47 445.46 475.95 444.91 470.03 441.5 468.55 442.04 474.47 445.46" style="fill:#8c86ac; fill-rule:evenodd;"/><polygon points="457.04 435.4 458.53 434.86 452.61 431.44 451.12 431.98 457.04 435.4" style="fill:#8c86ac; fill-rule:evenodd;"/><polygon points="448.45 430.44 449.94 429.9 444.02 426.48 442.53 427.02 448.45 430.44" style="fill:#8c86ac; fill-rule:evenodd;"/><polygon points="447.54 437.04 449.02 436.5 443.1 433.08 441.62 433.62 447.54 437.04" style="fill:#8c86ac; fill-rule:evenodd;"/><polygon points="439.86 425.48 441.35 424.93 435.43 421.52 433.94 422.06 439.86 425.48" style="fill:#8c86ac; fill-rule:evenodd;"/><polygon points="473.55 452.06 475.04 451.52 469.12 448.1 467.63 448.64 473.55 452.06" style="fill:#8c86ac; fill-rule:evenodd;"/><polygon points="456.13 442 457.62 441.46 451.7 438.04 450.21 438.58 456.13 442" style="fill:#8c86ac; fill-rule:evenodd;"/><polygon points="438.95 432.08 440.43 431.54 434.51 428.12 433.03 428.66 438.95 432.08" style="fill:#8c86ac; fill-rule:evenodd;"/><polygon points="475.67 445.02 475.95 444.91 470.25 441.62 469.97 441.73 475.67 445.02" style="fill:#73678b; fill-rule:evenodd;"/><polygon points="458.25 434.96 458.53 434.86 452.83 431.56 452.55 431.67 458.25 434.96" style="fill:#73678b; fill-rule:evenodd;"/><polygon points="449.66 430 449.94 429.9 444.24 426.6 443.95 426.71 449.66 430" style="fill:#73678b; fill-rule:evenodd;"/><polygon points="448.74 436.6 449.02 436.5 443.32 433.2 443.04 433.31 448.74 436.6" style="fill:#73678b; fill-rule:evenodd;"/><polygon points="441.06 425.04 441.35 424.93 435.64 421.64 435.36 421.75 441.06 425.04" style="fill:#73678b; fill-rule:evenodd;"/><polygon points="474.76 451.62 475.04 451.52 469.34 448.22 469.05 448.33 474.76 451.62" style="fill:#73678b; fill-rule:evenodd;"/><polygon points="457.33 441.56 457.62 441.46 451.91 438.17 451.63 438.27 457.33 441.56" style="fill:#73678b; fill-rule:evenodd;"/><polygon points="448.11 443.1 447.5 449.42 447.07 450.46 441.52 447.25 441.56 443.85 448.11 443.1" style="fill:url(#GradientFill_1715-13); fill-rule:evenodd;"/><polygon points="446.62 443.64 440.7 440.22 440.19 443.33 446.11 446.75 446.62 443.64" style="fill:#9188a5; fill-rule:evenodd;"/><polygon points="446.62 443.64 448.11 443.1 447.59 446.21 446.11 446.75 446.62 443.64" style="fill:#5c5b83; fill-rule:evenodd;"/><polygon points="446.62 443.64 448.11 443.1 442.19 439.68 440.7 440.22 446.62 443.64" style="fill:#8c86ac; fill-rule:evenodd;"/><polygon points="447.83 443.2 448.11 443.1 442.41 439.81 442.13 439.91 447.83 443.2" style="fill:#73678b; fill-rule:evenodd;"/><polygon points="440.15 431.64 440.43 431.54 434.73 428.24 434.45 428.35 440.15 431.64" style="fill:#73678b; fill-rule:evenodd;"/><path d="m435.77,338.68s1.68-8.92,8.33-5.08c6.65,3.84,42.29,24.36,46.52,26.8,4.23,2.44,6.38,9.09,5.69,13.28-.69,4.19-4.39,31.2-4.45,31.73-.06.53-2.25,8.28-8.53,4.66-6.28-3.63-42.9-24.79-45.89-26.52-2.99-1.73-7.09-7.22-6.03-13.78,1.06-6.56,4.37-31.09,4.37-31.09Z" style="fill:url(#GradientFill_1716); fill-rule:evenodd;"/><path d="m435.77,338.68s1.68-8.92,8.33-5.08c1.73,1,5.42,3.13,10.01,5.77l-12.92,32.46s-6.16,1.17-9.88-1.41c.02-.21.05-.43.09-.65,1.06-6.56,4.37-31.09,4.37-31.09Z" style="fill:url(#GradientFill_1717); fill-rule:evenodd;"/><path d="m439.87,332.81c1.11-.34,2.5-.21,4.23.79,6.65,3.84,42.29,24.36,46.52,26.8,4.23,2.44,6.38,9.09,5.69,13.28-.61,3.71-3.59,25.35-4.3,30.59,0,0-42.33-24.44-45.14-26.06-2.81-1.62-6.99-5.86-6.99-12.5v-32.9Z" style="fill:url(#GradientFill_1718); fill-rule:evenodd;"/><polygon points="446.96 371.19 462.9 352.09 463.6 381.89 463.36 387.74 447.53 378.6 446.96 371.19" style="fill:url(#GradientFill_1719); fill-rule:evenodd;"/><polygon points="465.48 350.53 462.9 352.09 462.9 377.34 465.48 375.78 465.48 350.53" style="fill:url(#GradientFill_1720); fill-rule:evenodd;"/><polygon points="465.48 350.53 462.9 352.09 446.68 342.73 449.26 341.17 465.48 350.53" style="fill:#5b4f73; fill-rule:evenodd;"/><polygon points="462.9 352.09 462.9 377.34 463.49 376.99 462.9 352.09" style="fill:#352f4b; fill-rule:evenodd;"/><path d="m439.87,332.81c1.11-.34,2.5-.21,4.23.79,6.65,3.84,42.29,24.36,46.52,26.8,3.27,1.89,5.3,6.31,5.73,10.15l-49.17-28.39c-3.42-1.97-6.4,2.84-6.4,7.49s.42,22.11.42,22.17c-.8-1.73-1.32-3.78-1.32-6.12v-32.9Z" style="fill:url(#GradientFill_1721); fill-rule:evenodd;"/><polygon points="465.48 352.74 463.61 351.66 465.48 350.53 465.48 352.74" style="fill:url(#GradientFill_1722); fill-rule:evenodd;"/><polygon points="463.61 351.66 447.39 342.3 449.26 341.17 465.48 350.53 463.61 351.66" style="fill:url(#GradientFill_1723); fill-rule:evenodd;"/><path d="m495.81,376.96c-.5,3.43-1.23,8.68-1.94,13.75l-21.12-12.19-.48-8.59,23.53,7.04Z" style="fill:url(#GradientFill_1724); fill-rule:evenodd;"/><path d="m496.42,371.75c.02.68-.02,1.33-.12,1.94-.09.55-.23,1.51-.42,2.75l-.92.1-26.1-15.07,5.34-3.44s15.76,9.1,17.95,10.36c2.18,1.26,4.26,3.35,4.28,3.36Z" style="fill:#837ba0; fill-rule:evenodd;"/><path d="m496.42,371.75c.02.68-.02,1.33-.12,1.94h0s-24.48-14.13-24.48-14.13l2.38-1.53s15.76,9.1,17.95,10.36c2.18,1.26,4.26,3.35,4.28,3.36Z" style="fill:url(#GradientFill_1725); fill-rule:evenodd;"/><path d="m495.95,375.96c-.26,1.75-.6,4.18-.99,6.91v-6.34l.99-.57Z" style="fill:#171427; fill-rule:evenodd;"/><polygon points="444.1 344.29 460.32 353.66 460.32 378.91 444.1 369.54 444.1 344.29" style="fill:#8c83a2; fill-rule:evenodd;"/><polygon points="462.9 352.09 460.32 353.66 460.32 378.91 462.9 377.34 462.9 352.09" style="fill:#2e2746; fill-rule:evenodd;"/><polygon points="462.9 352.09 460.32 353.66 444.1 344.29 446.68 342.73 462.9 352.09" style="fill:#80789d; fill-rule:evenodd;"/><polygon points="468.86 361.46 494.96 376.53 494.96 382.87 494.94 383 468.86 367.94 468.86 361.46" style="fill:#8b82a1; fill-rule:evenodd;"/><polygon points="470.38 364.24 493.37 377.55 493.37 380.02 470.38 366.71 470.38 364.24" style="fill:#221830; fill-rule:evenodd;"/><polygon points="493.37 379.19 493.37 380.02 470.38 366.71 471.34 366.47 493.37 379.19" style="fill:#7d759a; fill-rule:evenodd;"/><polygon points="250.82 452.3 291.34 428.91 354.01 465.19 313.49 488.58 250.82 452.3" style="fill:#eae8f5; fill-rule:evenodd;"/><polygon points="390.71 615.8 347.64 599.84 347.64 611.51 385.48 633.35 390.71 615.8" style="fill:#e7d9ea; fill-rule:evenodd;"/><polygon points="385.48 621.69 347.64 599.84 352.87 593.96 390.71 615.8 385.48 621.69" style="fill:#f3fbfe; fill-rule:evenodd;"/><polygon points="383 624.76 350.31 605.89 350.31 608.31 383 627.19 383 624.76" style="fill:url(#GradientFill_1726); fill-rule:evenodd;"/><polygon points="350.31 608.31 351.2 608.05 383 626.41 383 627.19 350.31 608.31" style="fill:#f3fbfe; fill-rule:evenodd;"/><polygon points="385.48 633.35 390.71 633.21 390.71 615.8 385.48 621.69 385.48 633.35" style="fill:#766fa2; fill-rule:evenodd;"/><polygon points="230.74 559.77 249.55 549.4 249.11 540.49 230.74 559.77" style="fill:#7f77a8; fill-rule:evenodd;"/><polygon points="259.06 576.12 228.78 558.64 228.78 562.52 259.06 580 259.06 576.12" style="fill:#e5d9e7; fill-rule:evenodd;"/><polygon points="259.06 576.12 257.1 574.99 275.48 555.72 277.43 556.84 259.06 576.12" style="fill:#f0f8fb; fill-rule:evenodd;"/><polygon points="230.74 559.77 228.78 558.64 247.16 539.37 249.11 540.49 230.74 559.77" style="fill:#f0f8fb; fill-rule:evenodd;"/><polygon points="279.74 555.51 249.47 538.03 247.16 539.37 277.43 556.84 279.74 555.51" style="fill:#e7e0e8; fill-rule:evenodd;"/><polygon points="259.06 576.12 277.43 556.84 279.74 555.51 279.74 568.06 259.06 580 259.06 576.12" style="fill:#938cb5; fill-rule:evenodd;"/><polygon points="249.11 540.49 249.11 549.16 230.74 559.77 249.11 540.49" style="fill:url(#GradientFill_1727); fill-rule:evenodd;"/><polygon points="249.11 540.49 275.48 555.72 272.03 559.34 249.98 546.61 249.98 549.65 249.11 549.16 249.11 540.49" style="fill:#e2d3e8; fill-rule:evenodd;"/><polygon points="249.55 549.4 249.11 549.16 249.11 540.49 249.55 549.4" style="fill:#b6a6ca; fill-rule:evenodd;"/><polygon points="249.98 549.65 252.62 548.13 249.98 546.61 249.98 549.65" style="fill:url(#GradientFill_1728); fill-rule:evenodd;"/><polygon points="249.98 549.65 250.93 549.43 270.63 560.8 272.03 559.34 252.62 548.13 249.98 549.65" style="fill:url(#GradientFill_1729); fill-rule:evenodd;"/><polygon points="282.87 610.56 273.49 615.67 271.99 616.3 242.18 599.09 252.24 592.87 282.87 610.56" style="fill:url(#GradientFill_1730); fill-rule:evenodd;"/><path d="m396.55,916.23v-81.37l3.08-1.78v-108.14c5.89-22.6,11.78-45.21,17.68-67.81,3.99-15.28,7.97-30.55,11.98-45.83,1.37-5.21,2.73-10.43,4.11-15.64.59-2.23,1.16-4.55,1.8-6.77.91-3.12,4.55-8.23,6.71-10.53,1.13-1.2,2.36-2.27,3.59-2.99,17.54-10.13,35.08-20.25,52.62-30.38l3.12-1.8v-59.81c2.75-19.25,5.49-38.49,8.23-57.73,1.86-13.03,3.71-26.06,5.56-39.09.63-4.42,1.25-8.83,1.88-13.25.27-1.91.57-3.88.8-5.78.2-1.43,1.68-4.58,2.47-5.97,1.66-2.95,3.74-5.43,6.17-6.84,9.04-5.22,18.09-10.22,27.13-15.44,1.47-.85,4.33-.21,5.37.28,2.38,1.1,3.95,3.41,3.95,7.17v473.52l-166.24,95.98Z" style="fill:url(#GradientFill_1731); fill-rule:evenodd;"/><path d="m399.63,733.55v-2.9c1.2-10.32,2.66-10.68,7.25-12.12,4.59-1.45,7.87-3.13,14.13-8.5,6.25-5.38,83.38-54,101.13-64.5,17.75-10.5,22.63-2.51,22.63-2.51l-26.38,55.51-108.33,46.52s-9.42-3.3-10.42-11.49Z" style="fill:url(#GradientFill_1731-2); fill-rule:evenodd;"/><path d="m399.91,733.67v-2.9c1.2-10.32,2.55-10.76,7.1-12.15,4.55-1.39,7.8-3.17,14.1-8.51,6.3-5.35,83.15-53.68,100.9-64.18,17.75-10.5,22.75-2.91,22.75-2.91-.42.88-25.96,54.63-26.38,55.51-1.72.74-106.61,45.78-108.33,46.52,0,0-9.14-3.19-10.14-11.38Z" style="fill:url(#linear-gradient-21); fill-rule:evenodd;"/><path d="m400.19,733.78v-2.9c1.2-10.32,2.44-10.84,6.96-12.17,4.51-1.33,7.72-3.21,14.07-8.53,6.35-5.32,82.93-53.35,100.68-63.85,17.75-10.5,22.86-3.31,22.86-3.31-.84,1.76-25.54,53.75-26.38,55.51-3.44,1.48-104.89,45.04-108.33,46.52,0,0-8.86-3.07-9.86-11.26Z" style="fill:url(#linear-gradient-22); fill-rule:evenodd;"/><path d="m400.47,733.9v-2.9c1.2-10.32,2.34-10.92,6.81-12.19,4.47-1.28,7.65-3.25,14.04-8.54,6.39-5.29,82.7-53.03,100.45-63.53,17.75-10.5,22.98-3.72,22.98-3.72-1.26,2.64-25.12,52.87-26.38,55.51-5.16,2.22-103.17,44.3-108.33,46.52,0,0-8.58-2.96-9.58-11.15Z" style="fill:url(#linear-gradient-23); fill-rule:evenodd;"/><path d="m400.76,734.01v-2.9c1.2-10.32,2.23-11,6.67-12.22,4.43-1.22,7.57-3.29,14.01-8.55,6.44-5.26,82.48-52.71,100.23-63.21,17.75-10.5,23.1-4.12,23.1-4.12-1.67,3.52-24.71,51.98-26.38,55.51-6.88,2.95-101.45,43.56-108.33,46.52,0,0-8.3-2.84-9.29-11.03Z" style="fill:url(#linear-gradient-24); fill-rule:evenodd;"/><path d="m401.04,734.13v-2.9c1.2-10.32,2.13-11.08,6.52-12.24,4.39-1.16,7.5-3.33,13.99-8.57,6.49-5.23,82.25-52.38,100-62.88,17.75-10.5,23.21-4.52,23.21-4.52-2.09,4.41-24.29,51.1-26.38,55.51-8.6,3.69-99.73,42.82-108.33,46.52,0,0-8.01-2.73-9.01-10.92Z" style="fill:url(#linear-gradient-25); fill-rule:evenodd;"/><path d="m401.32,734.24v-2.9c1.2-10.32,2.02-11.16,6.37-12.26,4.35-1.1,7.42-3.38,13.96-8.58,6.54-5.2,82.03-52.06,99.78-62.56,17.75-10.5,23.33-4.92,23.33-4.92-2.51,5.29-23.87,50.22-26.38,55.51-10.32,4.43-98.01,42.09-108.33,46.52,0,0-7.73-2.61-8.73-10.8Z" style="fill:url(#linear-gradient-26); fill-rule:evenodd;"/><path d="m401.6,734.36v-2.9c1.2-10.32,1.92-11.24,6.23-12.29,4.31-1.05,7.35-3.42,13.93-8.59,6.58-5.18,81.8-51.73,99.55-62.23,17.75-10.5,23.45-5.32,23.45-5.32-2.93,6.17-23.45,49.34-26.38,55.51-12.04,5.17-96.29,41.35-108.33,46.52,0,0-7.45-2.5-8.45-10.69Z" style="fill:url(#linear-gradient-27); fill-rule:evenodd;"/><path d="m401.88,734.47v-2.9c1.2-10.32,1.81-11.32,6.08-12.31,4.27-.99,7.27-3.46,13.9-8.61,6.63-5.15,81.58-51.41,99.33-61.91,17.75-10.5,23.56-5.73,23.56-5.73-3.35,7.05-23.03,48.46-26.38,55.51-13.76,5.91-94.57,40.61-108.33,46.52,0,0-7.17-2.38-8.17-10.57Z" style="fill:url(#linear-gradient-28); fill-rule:evenodd;"/><path d="m402.16,734.59v-2.9c1.2-10.32,1.7-11.4,5.94-12.33,4.23-.93,7.19-3.5,13.88-8.62,6.68-5.12,81.36-51.09,99.11-61.59,17.75-10.5,23.68-6.13,23.68-6.13-3.77,7.93-22.61,47.58-26.38,55.51-15.48,6.65-92.85,39.87-108.33,46.52,0,0-6.89-2.27-7.89-10.46Z" style="fill:url(#linear-gradient-29); fill-rule:evenodd;"/><path d="m402.45,734.7v-2.9c1.2-10.32,1.6-11.48,5.79-12.35,4.19-.88,7.12-3.54,13.85-8.64,6.73-5.09,81.13-50.76,98.88-61.26,17.75-10.5,23.8-6.53,23.8-6.53-4.19,8.81-22.19,46.7-26.38,55.51-17.19,7.38-91.13,39.13-108.33,46.52,0,0-6.61-2.15-7.6-10.34Z" style="fill:url(#linear-gradient-30); fill-rule:evenodd;"/><path d="m402.73,734.82v-2.9c1.2-10.32,1.49-11.56,5.64-12.38,4.15-.82,7.04-3.59,13.82-8.65,6.78-5.06,80.91-50.44,98.66-60.94,17.75-10.5,23.91-6.93,23.91-6.93-4.61,9.69-21.77,45.82-26.38,55.51-18.91,8.12-89.41,38.39-108.33,46.52,0,0-6.32-2.04-7.32-10.23Z" style="fill:url(#linear-gradient-31); fill-rule:evenodd;"/><path d="m403.01,734.93v-2.9c1.2-10.32,1.39-11.64,5.5-12.4,4.11-.76,6.97-3.63,13.79-8.66,6.82-5.03,80.68-50.12,98.43-60.62,17.75-10.5,24.03-7.34,24.03-7.34-5.02,10.57-21.36,44.94-26.38,55.51-20.63,8.86-87.69,37.66-108.33,46.52,0,0-6.04-1.92-7.04-10.11Z" style="fill:url(#linear-gradient-32); fill-rule:evenodd;"/><path d="m403.29,735.05v-2.9c1.2-10.32,1.28-11.72,5.35-12.42,4.07-.71,6.89-3.67,13.76-8.68,6.87-5.01,80.46-49.79,98.21-60.29,17.75-10.5,24.14-7.74,24.14-7.74-5.44,11.45-20.94,44.05-26.38,55.51-22.35,9.6-85.97,36.92-108.33,46.52,0,0-5.76-1.81-6.76-10Z" style="fill:url(#linear-gradient-33); fill-rule:evenodd;"/><path d="m403.57,735.16v-2.9c1.2-10.32,1.17-11.8,5.21-12.45,4.03-.65,6.82-3.71,13.74-8.69,6.92-4.98,80.23-49.47,97.98-59.97,17.75-10.5,24.26-8.14,24.26-8.14-5.86,12.34-20.52,43.17-26.38,55.51-24.07,10.34-84.26,36.18-108.33,46.52,0,0-5.48-1.69-6.48-9.88Z" style="fill:url(#linear-gradient-34); fill-rule:evenodd;"/><path d="m403.86,735.28v-2.9c1.2-10.32,1.07-11.88,5.06-12.47s6.74-3.75,13.71-8.7c6.97-4.95,80.01-49.14,97.76-59.64,17.75-10.5,24.38-8.54,24.38-8.54-6.28,13.22-20.1,42.29-26.38,55.51-25.79,11.08-82.54,35.44-108.33,46.52,0,0-5.2-1.58-6.2-9.77Z" style="fill:url(#linear-gradient-35); fill-rule:evenodd;"/><path d="m404.14,735.39v-2.9c1.2-10.32.96-11.96,4.91-12.49,3.95-.53,6.66-3.8,13.68-8.72,7.02-4.92,79.78-48.82,97.53-59.32,17.75-10.5,24.49-8.95,24.49-8.95-6.7,14.1-19.68,41.41-26.38,55.51-27.51,11.81-80.82,34.7-108.33,46.52,0,0-4.91-1.46-5.91-9.65Z" style="fill:url(#linear-gradient-36); fill-rule:evenodd;"/><path d="m404.42,735.51v-2.9c1.2-10.32.86-12.04,4.77-12.51,3.91-.48,6.59-3.84,13.65-8.73,7.06-4.89,79.56-48.5,97.31-59,17.75-10.5,24.61-9.35,24.61-9.35-7.12,14.98-19.26,40.53-26.38,55.51-29.23,12.55-79.1,33.96-108.33,46.52,0,0-4.63-1.35-5.63-9.54Z" style="fill:url(#linear-gradient-37); fill-rule:evenodd;"/><path d="m404.7,735.62v-2.9c1.2-10.32.75-12.12,4.62-12.54,3.87-.42,6.51-3.88,13.62-8.74,7.11-4.86,79.34-48.17,97.09-58.67,17.75-10.5,24.73-9.75,24.73-9.75-7.54,15.86-18.84,39.65-26.38,55.51-30.95,13.29-77.38,33.23-108.33,46.52,0,0-4.35-1.23-5.35-9.42Z" style="fill:url(#linear-gradient-38); fill-rule:evenodd;"/><path d="m404.98,735.74v-2.9c1.2-10.32.65-12.2,4.48-12.56s6.44-3.92,13.6-8.76c7.16-4.83,79.11-47.85,96.86-58.35,17.75-10.5,24.84-10.15,24.84-10.15-7.96,16.74-18.42,38.77-26.38,55.51-32.67,14.03-75.66,32.49-108.33,46.52,0,0-4.07-1.12-5.07-9.31Z" style="fill:url(#linear-gradient-39); fill-rule:evenodd;"/><path d="m405.26,735.85v-2.9c1.2-10.32.54-12.28,4.33-12.58,3.79-.31,6.36-3.96,13.57-8.77,7.21-4.81,78.89-47.53,96.64-58.03,17.75-10.5,24.96-10.56,24.96-10.56-8.37,17.62-18.01,37.89-26.38,55.51-34.39,14.77-73.94,31.75-108.33,46.52,0,0-3.79-1-4.79-9.19Z" style="fill:url(#linear-gradient-40); fill-rule:evenodd;"/><path d="m405.55,735.97v-2.9c1.2-10.32.43-12.36,4.18-12.61,3.75-.25,6.29-4.01,13.54-8.78,7.25-4.78,78.66-47.2,96.41-57.7,17.75-10.5,25.08-10.96,25.08-10.96-8.79,18.5-17.59,37.01-26.38,55.51-36.11,15.51-72.22,31.01-108.33,46.52,0,0-3.51-.89-4.5-9.08Z" style="fill:#a49fc0; fill-rule:evenodd;"/><path d="m405.69,736.02v-2.9c1.2-10.32.36-12.37,4.11-12.62,3.75-.25,6.25-4.03,13.53-8.79,7.28-4.76,78.55-47.04,96.3-57.54,17.75-10.5,25.13-11.16,25.13-11.16-8.37,17.62-18.01,37.89-26.38,55.51-34.39,14.77-73.94,31.75-108.33,46.52,0,0-3.37-.83-4.36-9.02Z" style="fill:#a29dbe; fill-rule:evenodd;"/><path d="m405.83,736.08v-2.9c1.2-10.32.29-12.38,4.04-12.63,3.75-.25,6.21-4.05,13.51-8.8,7.3-4.75,78.44-46.88,96.19-57.38,17.75-10.5,25.19-11.36,25.19-11.36-7.96,16.74-18.42,38.77-26.38,55.51-32.67,14.03-75.66,32.49-108.33,46.52,0,0-3.22-.77-4.22-8.96Z" style="fill:#a09cbd; fill-rule:evenodd;"/><path d="m405.97,736.14v-2.9c1.2-10.32.21-12.39,3.96-12.64,3.75-.25,6.17-4.07,13.5-8.8,7.33-4.73,78.33-46.72,96.08-57.22,17.75-10.5,25.25-11.56,25.25-11.56-7.54,15.86-18.84,39.65-26.38,55.51-30.95,13.29-77.38,33.23-108.33,46.52,0,0-3.08-.72-4.08-8.91Z" style="fill:#9e9abb; fill-rule:evenodd;"/><path d="m406.11,736.2v-2.9c1.2-10.32.14-12.4,3.89-12.65,3.75-.25,6.14-4.09,13.49-8.81,7.35-4.72,78.21-46.55,95.96-57.05,17.75-10.5,25.31-11.76,25.31-11.76-7.12,14.98-19.26,40.53-26.38,55.51-29.23,12.55-79.1,33.96-108.33,46.52,0,0-2.94-.66-3.94-8.85Z" style="fill:#9c98ba; fill-rule:evenodd;"/><path d="m406.25,736.25v-2.9c1.2-10.32.07-12.41,3.82-12.66,3.75-.25,6.1-4.11,13.47-8.82,7.37-4.71,78.1-46.39,95.85-56.89,17.75-10.5,25.37-11.96,25.37-11.96-6.7,14.1-19.68,41.41-26.38,55.51-27.51,11.81-80.82,34.7-108.33,46.52,0,0-2.8-.6-3.8-8.79Z" style="fill:#9a97b8; fill-rule:evenodd;"/><path d="m406.39,736.31v-2.9c1.2-10.32,0-12.42,3.75-12.67,3.75-.25,6.06-4.13,13.46-8.82,7.4-4.69,77.99-46.23,95.74-56.73,17.75-10.5,25.43-12.17,25.43-12.17-6.28,13.22-20.1,42.29-26.38,55.51-25.79,11.08-82.54,35.44-108.33,46.52,0,0-2.66-.54-3.66-8.73Z" style="fill:#9995b7; fill-rule:evenodd;"/><path d="m406.53,736.37v-2.9c1.2-10.32-.08-12.44,3.67-12.69,3.75-.25,6.02-4.15,13.44-8.83,7.42-4.68,77.88-46.07,95.63-56.57,17.75-10.5,25.48-12.37,25.48-12.37-5.86,12.34-20.52,43.17-26.38,55.51-24.07,10.34-84.26,36.18-108.33,46.52,0,0-2.52-.49-3.52-8.68Z" style="fill:#9793b5; fill-rule:evenodd;"/><path d="m406.67,736.43v-2.9c1.2-10.32-.15-12.45,3.6-12.7,3.75-.25,5.98-4.17,13.43-8.84,7.45-4.66,77.76-45.91,95.51-56.41,17.75-10.5,25.54-12.57,25.54-12.57-5.44,11.45-20.94,44.05-26.38,55.51-22.35,9.6-85.97,36.92-108.33,46.52,0,0-2.38-.43-3.38-8.62Z" style="fill:#9592b4; fill-rule:evenodd;"/><path d="m406.81,736.49v-2.9c1.2-10.32-.22-12.46,3.53-12.71,3.75-.25,5.95-4.2,13.42-8.84,7.47-4.65,77.65-45.75,95.4-56.25,17.75-10.5,25.6-12.77,25.6-12.77-5.02,10.57-21.36,44.94-26.38,55.51-20.63,8.86-87.69,37.66-108.33,46.52,0,0-2.24-.37-3.24-8.56Z" style="fill:#9390b2; fill-rule:evenodd;"/><path d="m406.95,736.54v-2.9c1.2-10.32-.3-12.47,3.45-12.72,3.75-.25,5.91-4.22,13.4-8.85,7.49-4.64,77.54-45.58,95.29-56.08,17.75-10.5,25.66-12.97,25.66-12.97-4.61,9.69-21.77,45.82-26.38,55.51-18.91,8.12-89.41,38.39-108.33,46.52,0,0-2.1-.31-3.1-8.5Z" style="fill:#918eb1; fill-rule:evenodd;"/><path d="m407.1,736.6v-2.9c1.2-10.32-.37-12.48,3.38-12.73,3.75-.25,5.87-4.24,13.39-8.86,7.52-4.62,77.43-45.42,95.18-55.92,17.75-10.5,25.72-13.17,25.72-13.17-4.19,8.81-22.19,46.7-26.38,55.51-17.19,7.38-91.13,39.13-108.33,46.52,0,0-1.96-.25-2.96-8.45Z" style="fill:#8f8daf; fill-rule:evenodd;"/><path d="m407.24,736.66v-2.9c1.2-10.32-.44-12.49,3.31-12.74,3.75-.25,5.83-4.26,13.37-8.86,7.54-4.61,77.32-45.26,95.07-55.76,17.75-10.5,25.77-13.37,25.77-13.37-3.77,7.93-22.61,47.58-26.38,55.51-15.48,6.65-92.85,39.87-108.33,46.52,0,0-1.82-.2-2.81-8.39Z" style="fill:#8d8bae; fill-rule:evenodd;"/><path d="m407.38,736.72v-2.9c1.2-10.32-.51-12.5,3.23-12.75,3.75-.25,5.8-4.28,13.36-8.87,7.57-4.59,77.2-45.1,94.95-55.6,17.75-10.5,25.83-13.57,25.83-13.57-3.35,7.05-23.03,48.46-26.38,55.51-13.76,5.91-94.57,40.61-108.33,46.52,0,0-1.67-.14-2.67-8.33Z" style="fill:#8b89ac; fill-rule:evenodd;"/><path d="m407.52,736.77v-2.9c1.2-10.32-.59-12.52,3.16-12.77,3.75-.25,5.76-4.3,13.35-8.88s77.09-44.94,94.84-55.44c17.75-10.5,25.89-13.78,25.89-13.78-2.93,6.17-23.45,49.34-26.38,55.51-12.04,5.17-96.29,41.35-108.33,46.52,0,0-1.53-.08-2.53-8.27Z" style="fill:#8988ab; fill-rule:evenodd;"/><path d="m407.66,736.83v-2.9c1.2-10.32-.66-12.53,3.09-12.78,3.75-.25,5.72-4.32,13.33-8.88,7.61-4.56,76.98-44.77,94.73-55.27,17.75-10.5,25.95-13.98,25.95-13.98-2.51,5.29-23.87,50.22-26.38,55.51-10.32,4.43-98.01,42.09-108.33,46.52,0,0-1.39-.02-2.39-8.22Z" style="fill:#8786a9; fill-rule:evenodd;"/><path d="m407.8,736.89v-2.9c1.2-10.32-.73-12.54,3.02-12.79,3.75-.25,5.68-4.34,13.32-8.89,7.64-4.55,76.87-44.61,94.62-55.11,17.75-10.5,26.01-14.18,26.01-14.18-2.09,4.41-24.29,51.1-26.38,55.51-8.6,3.69-99.73,42.82-108.33,46.52,0,0-1.25.03-2.25-8.16Z" style="fill:#8684a8; fill-rule:evenodd;"/><path d="m407.94,736.95v-2.9c1.2-10.32-.81-12.55,2.94-12.8,3.75-.25,5.64-4.36,13.31-8.9,7.66-4.54,76.75-44.45,94.5-54.95,17.75-10.5,26.07-14.38,26.07-14.38-1.67,3.52-24.71,51.98-26.38,55.51-6.88,2.95-101.45,43.56-108.33,46.52,0,0-1.11.09-2.11-8.1Z" style="fill:#8483a6; fill-rule:evenodd;"/><path d="m408.08,737v-2.9c1.2-10.32-.88-12.56,2.87-12.81,3.75-.25,5.61-4.38,13.29-8.91,7.69-4.52,76.64-44.29,94.39-54.79,17.75-10.5,26.12-14.58,26.12-14.58-1.26,2.64-25.12,52.87-26.38,55.51-5.16,2.22-103.17,44.3-108.33,46.52,0,0-.97.15-1.97-8.04Z" style="fill:#8281a5; fill-rule:evenodd;"/><path d="m408.22,737.06v-2.9c1.2-10.32-.95-12.57,2.8-12.82,3.75-.25,5.57-4.41,13.28-8.91,7.71-4.51,76.53-44.13,94.28-54.63,17.75-10.5,26.18-14.78,26.18-14.78-.84,1.76-25.54,53.75-26.38,55.51-3.44,1.48-104.89,45.04-108.33,46.52,0,0-.83.21-1.83-7.98Z" style="fill:#807fa3; fill-rule:evenodd;"/><path d="m408.36,737.12v-2.9c1.2-10.32-1.03-12.58,2.72-12.83,3.75-.25,5.53-4.43,13.26-8.92,7.73-4.49,76.42-43.97,94.17-54.47,17.75-10.5,26.24-14.98,26.24-14.98-.42.88-25.96,54.63-26.38,55.51-1.72.74-106.61,45.78-108.33,46.52,0,0-.69.26-1.69-7.93Z" style="fill:#7e7ea2; fill-rule:evenodd;"/><path d="m408.5,737.18v-2.9c1.2-10.32-1.1-12.6,2.65-12.85,3.75-.25,5.49-4.45,13.25-8.93,7.76-4.48,76.31-43.8,94.06-54.3,17.75-10.5,26.3-15.18,26.3-15.18l-26.38,55.51-108.33,46.52s-.55.32-1.55-7.87Z" style="fill:#7c7ca0; fill-rule:evenodd;"/><path d="m410.05,745.05s77.01,44.46,88.06,50.84c11.04,6.38,24.22,3.94,29.13,1.1,4.92-2.84,98.95-57.4,107.13-62.13,3.88-2.24,5.41-5.16,5.17-8.04v-23.11c.3-3.57-2.23-7.25-6.45-9.69l-88.32-50.99-134.71,77.77v24.25Z" style="fill:#60677a; fill-rule:evenodd;"/><polygon points="431.74 757.57 496.32 794.85 496.32 717.13 431.74 717.13 431.74 757.57" style="fill:#6e6f81; fill-rule:evenodd;"/><path d="m631.99,736.23c1.07-.62,1.88-1.09,2.37-1.37,3.88-2.24,5.41-5.16,5.17-8.04v-23.11c.3-3.57-2.23-7.25-6.45-9.69l-1.09-.63v42.84Z" style="fill:url(#GradientFill_1752); fill-rule:evenodd;"/><path d="m490.99,791.78l7.11,4.11c11.04,6.38,24.22,3.94,29.13,1.1.59-.34,2.47-1.43,5.33-3.09v-55.26h-41.57v53.14Z" style="fill:url(#GradientFill_1753); fill-rule:evenodd;"/><polygon points="410.05 745.05 435.32 759.63 435.32 706.21 410.05 720.8 410.05 745.05" style="fill:url(#GradientFill_1754); fill-rule:evenodd;"/><polygon points="410.05 745.05 411.8 746.05 411.8 719.79 410.05 720.8 410.05 745.05" style="fill:#31334c; fill-rule:evenodd;"/><path d="m410.05,720.8s77.01,44.46,88.06,50.84c11.04,6.38,24.22,3.94,29.13,1.1,4.92-2.84,98.95-57.4,107.13-62.13,8.18-4.72,5.9-12.44-1.28-16.59l-88.32-50.99-134.71,77.77Z" style="fill:url(#GradientFill_1755); fill-rule:evenodd;"/><path d="m410.05,720.8l.06.03.17.1.27.16.37.22.47.27.4.23c25.92-11.76,53.54-23.64,78.34-37.75,20.31-11.56,49.86-29.13,49.86-29.13l17.38-4.62-12.61-7.28-134.71,77.77Z" style="fill:url(#GradientFill_1756); fill-rule:evenodd;"/><polygon points="506.5 111.27 522.33 108.23 522.33 327.93 511.78 334.02 506.5 111.27" style="fill:url(#GradientFill_1757); fill-rule:evenodd;"/><polygon points="511.78 114.32 501.22 108.23 501.22 327.93 511.78 334.02 511.78 114.32" style="fill:#706f7f; fill-rule:evenodd;"/><polygon points="511.78 114.32 501.22 108.23 501.22 209.43 511.78 215.52 511.78 114.32" style="fill:url(#GradientFill_1758); fill-rule:evenodd;"/><path d="m570.83,34.24v61.51c.17,2.5-1.58,5.18-5.15,7.25l-42.59,24.59c-6.24,3.6-15.77,4-21.17.88l-45.91-26.5c-2.58-1.49-3.77-3.52-3.63-5.64v-61.51c-.17-2.5,1.58-5.19,5.15-7.25l42.59-24.59c6.24-3.6,15.77-4,21.17-.88l45.91,26.5c2.58,1.49,3.77,3.53,3.63,5.64Z" style="fill:url(#GradientFill_735); fill-rule:evenodd;"/><path d="m521.29,2.1l45.91,26.5c5.4,3.12,4.72,8.62-1.52,12.22l-42.59,24.59c-6.24,3.6-15.77,4-21.17.88l-45.91-26.5c-5.4-3.12-4.72-8.62,1.52-12.22l42.59-24.59c6.24-3.6,15.77-4,21.17-.88Z" style="fill:#ade462; fill-rule:evenodd;"/><path d="m519,3.51l45.68,26.37c4.04,2.33,3.53,6.44-1.14,9.14l-43.36,25.03c-4.66,2.69-11.79,2.99-15.83.66l-45.68-26.37c-4.04-2.33-3.53-6.44,1.14-9.14l43.36-25.03c4.66-2.69,11.79-2.99,15.83-.66Z" style="fill:url(#GradientFill_780); fill-rule:evenodd;"/><path d="m566.04,37.03c-.62.71-1.46,1.38-2.5,1.99l-43.36,25.03c-4.66,2.69-11.79,2.99-15.83.66l-45.68-26.37c-.54-.31-.99-.65-1.37-1.01.62-.71,1.46-1.38,2.5-1.99l43.36-25.03c4.66-2.69,11.79-2.99,15.83-.66l45.68,26.37c.54.31.99.65,1.37,1.01Z" style="fill:#fff; fill-rule:evenodd;"/><polygon points="378.14 857.83 377.47 847.12 22.82 642.36 22.82 679.34 23.49 690.05 378.14 894.81 378.14 857.83" style="fill:url(#GradientFill_1759); fill-rule:evenodd;"/><polygon points="20.12 643.92 377.47 847.12 377.47 884.1 374.77 885.65 20.12 643.92" style="fill:#3f3e5d; fill-rule:evenodd;"/><polygon points="374.77 848.68 20.12 643.92 20.12 680.9 374.77 885.65 374.77 848.68" style="fill:#6e6d7f; fill-rule:evenodd;"/><polygon points="374.77 848.68 20.12 643.92 22.82 642.36 377.47 847.12 374.77 848.68" style="fill:#6e6c84; fill-rule:evenodd;"/></g></svg>