<?xml version="1.0" encoding="UTF-8"?>
<svg id="Layer_1" data-name="Layer 1" xmlns="http://www.w3.org/2000/svg" viewBox="0 0 109 257">
  <defs>
    <style>
      .cls-1, .cls-2 {
        fill: none;
      }

      .cls-1, .cls-2, .cls-3 {
        stroke: #000;
      }

      .cls-1, .cls-3 {
        stroke-miterlimit: 10;
      }

      .cls-2 {
        stroke-miterlimit: 10;
        stroke-width: 1px;
      }

      .cls-3 {
        fill: #fff;
        stroke-width: 2px;
      }
    </style>
  </defs>
  <g id="Checkout">
    <polygon id="Rectangle_7577-4" data-name="Rectangle 7577-4" class="cls-3" points="1 217.3 1 1 108 1 108 131.5 54 131.5 54 217.3 102.9 217.3 102.9 256 17.9 256 1 217.3"/>
    <rect class="cls-1" x=".9" y="145.1" width="14.8" height="37"/>
    <rect class="cls-1" x="8.8" y="148.4" width="5.1" height="30"/>
    <rect class="cls-1" x="19.9" y="149.6" width="26.7" height="28"/>
    <rect class="cls-1" x="21.9" y="152.6" width="14" height="22"/>
    <g>
      <line class="cls-1" x1="53.4" y1="188.6" x2="1.4" y2="188.6"/>
      <line class="cls-1" x1="52.9" y1="138.6" x2=".9" y2="138.6"/>
    </g>
    <line class="cls-1" x1="6.4" y1="182.1" x2="6.4" y2="145.1"/>
    <line class="cls-1" x1="4.4" y1="138.5" x2="4.4" y2="1.6"/>
    <line class="cls-1" x1="50.9" y1="138.5" x2="50.9" y2="1.6"/>
    <line class="cls-1" x1="53.6" y1="138.1" x2="53.6" y2="1"/>
    <line class="cls-1" x1="54" y1="105.1" x2="107" y2="105.1"/>
    <rect class="cls-1" x="65" y="118.5" width="32" height="9"/>
    <path class="cls-1" d="m84,110.5c0-1.7-1.3-3-3-3s-3,1.3-3,3"/>
    <rect class="cls-2" x="57.21" y="110.54" width="46" height="3.5" transform="translate(-8.62 6.69) rotate(-4.53)"/>
    <circle class="cls-1" cx="102" cy="118.5" r="3"/>
    <g>
      <rect class="cls-1" x="55.5" y="71.6" width="42" height="31.7"/>
      <g>
        <line class="cls-1" x1="55.5" y1="79" x2="75.9" y2="79"/>
        <line class="cls-1" x1="55.5" y1="95" x2="75.9" y2="95"/>
        <line class="cls-1" x1="55.5" y1="87" x2="75.9" y2="87"/>
      </g>
      <g>
        <line class="cls-1" x1="60.5" y1="71.1" x2="60.5" y2="103.1"/>
        <line class="cls-1" x1="65.8" y1="71.1" x2="65.8" y2="103.1"/>
        <line class="cls-1" x1="71" y1="71.1" x2="71" y2="103.1"/>
        <line class="cls-1" x1="76.2" y1="71.1" x2="76.2" y2="103.1"/>
      </g>
      <circle class="cls-1" cx="81.9" cy="77" r="3.5"/>
      <circle class="cls-1" cx="90.9" cy="77" r="3.5"/>
      <circle class="cls-1" cx="81.9" cy="87" r="3.5"/>
      <circle class="cls-1" cx="90.9" cy="87" r="3.5"/>
      <circle class="cls-1" cx="81.9" cy="97" r="3.5"/>
      <circle class="cls-1" cx="90.9" cy="97" r="3.5"/>
    </g>
    <g>
      <rect class="cls-1" x="55.4" y="3.5" width="42" height="31.7"/>
      <g>
        <line class="cls-1" x1="55.3" y1="13.5" x2="97.4" y2="13.5"/>
        <line class="cls-1" x1="55.3" y1="24.5" x2="97.4" y2="24.5"/>
      </g>
      <g>
        <line class="cls-1" x1="61.4" y1="3" x2="61.4" y2="35"/>
        <line class="cls-1" x1="67.5" y1="3" x2="67.5" y2="35"/>
        <line class="cls-1" x1="73.6" y1="3" x2="73.6" y2="35"/>
        <line class="cls-1" x1="79.7" y1="3" x2="79.7" y2="35"/>
        <line class="cls-1" x1="85.8" y1="3" x2="85.8" y2="35"/>
        <line class="cls-1" x1="91.4" y1="3" x2="91.4" y2="35"/>
      </g>
    </g>
    <g>
      <rect class="cls-1" x="55.5" y="37.6" width="42" height="31.7"/>
      <g>
        <line class="cls-1" x1="55.5" y1="45" x2="97.5" y2="45"/>
        <line class="cls-1" x1="55.5" y1="61" x2="97.5" y2="61"/>
        <line class="cls-1" x1="55.5" y1="53" x2="97.5" y2="53"/>
      </g>
      <g>
        <line class="cls-1" x1="60.5" y1="37.1" x2="60.5" y2="69.1"/>
        <line class="cls-1" x1="65.8" y1="37.1" x2="65.8" y2="69.1"/>
        <line class="cls-1" x1="71" y1="37.1" x2="71" y2="69.1"/>
        <line class="cls-1" x1="76.2" y1="37.1" x2="76.2" y2="69.1"/>
        <line class="cls-1" x1="81.4" y1="37.1" x2="81.4" y2="69.1"/>
        <line class="cls-1" x1="86.7" y1="37.1" x2="86.7" y2="69.1"/>
        <line class="cls-1" x1="91.9" y1="37" x2="91.9" y2="69"/>
      </g>
    </g>
  </g>
</svg>