<?xml version="1.0" encoding="UTF-8"?><svg id="Layer_1" xmlns="http://www.w3.org/2000/svg" xmlns:xlink="http://www.w3.org/1999/xlink" viewBox="0 0 82.71 208.02"><defs><clipPath id="clippath"><rect width="82.71" height="208.02" style="fill:none;"/></clipPath></defs><g id="Group_559"><g style="clip-path:url(#clippath);"><g id="Group_558"><rect id="Rectangle_6267" x=".85" y=".8" width="39.97" height="176" style="fill:#fff;"/><path id="Path_2557" d="m40.57,176.55H1.1V1.05h39.47v175.5ZM41.07.55H.6v176.5h40.47V.55Z"/><rect id="Rectangle_6268" x=".85" y="113.92" width="39.97" height="34.88" style="fill:#fff;"/><path id="Path_2558" d="m40.57,148.55H1.1v-34.38h39.47v34.38Zm.5-34.88H.6v35.38h40.47v-35.38Z"/><rect id="Rectangle_6269" x="16.94" y="120.94" width="19.98" height="20.83" style="fill:#fff;"/><path id="Path_2559" d="m36.67,141.52h-19.48v-20.33h19.48v20.33Zm.5-20.83h-20.48v21.33h20.48v-21.33Z"/><rect id="Rectangle_6270" x=".85" y="116.58" width="9.74" height="29.55" style="fill:#fff;"/><path id="Path_2560" d="m10.34,145.88H1.1v-29.05h9.24v29.05Zm.5-29.55H.6v30.05h10.24v-30.05Z"/><rect id="Rectangle_6271" x="5.72" y="118.04" width="3.89" height="26.64" style="fill:#fff;"/><path id="Path_2561" d="m9.36,144.43h-3.39v-26.14h3.39v26.14Zm.5-26.64h-4.39v27.14h4.39v-27.14Z"/><line id="Line_47" x1="3.82" y1="116.53" x2="3.82" y2="146.19" style="fill:none; stroke:#000; stroke-width:.5px;"/><rect id="Rectangle_6272" x="18.31" y="123.18" width="10.8" height="16.05" style="fill:#fff;"/><path id="Path_2562" d="m28.87,138.98h-10.3v-15.55h10.3s0,15.55,0,15.55Zm.5-16.05h-11.3v16.55h11.3s0-16.55,0-16.55Z"/><path id="Path_2563" d="m81.05,207.52H11.57L.36,176.32h80.69v31.21h0Z" style="fill:#fff;"/><path id="Path_2564" d="m81.05,207.52H11.57L.36,176.32h80.69v31.21h0Z" style="fill:none; stroke:#000; stroke-width:.5px;"/><rect id="Rectangle_6273" x="40.82" y=".79" width="40.47" height="91.18" style="fill:#fff;"/><rect id="Rectangle_6274" x="40.82" y=".79" width="40.47" height="91.18" style="fill:none; stroke:#000; stroke-width:.5px;"/><rect id="Rectangle_6275" x=".84" y=".79" width="2.44" height="113.12" style="fill:#fff;"/><rect id="Rectangle_6276" x=".84" y=".79" width="2.44" height="113.12" style="fill:none; stroke:#000; stroke-width:.5px;"/><rect id="Rectangle_6277" x="38.39" y=".79" width="2.44" height="113.12" style="fill:#fff;"/><rect id="Rectangle_6278" x="38.39" y=".79" width="2.44" height="113.12" style="fill:none; stroke:#000; stroke-width:.5px;"/><rect id="Rectangle_6279" x="40.82" y="91.97" width="40.47" height="18.04" style="fill:#fff;"/><rect id="Rectangle_6280" x="40.82" y="91.97" width="40.47" height="18.04" style="fill:none; stroke:#000; stroke-width:.5px;"/><rect id="Rectangle_6281" x="48.63" y="102.7" width="24.85" height="5.84" style="fill:#fff;"/><path id="Path_2565" d="m73.24,108.29h-24.35v-5.34h24.35v5.34Zm.5-5.84h-25.35v6.34h25.35v-6.34Z"/><path id="Path_2566" d="m61.79,98.79c0,1.62-1.31,2.93-2.93,2.93s-2.93-1.31-2.93-2.93,1.31-2.93,2.93-2.93h0c1.62,0,2.93,1.31,2.93,2.93" style="fill:#fff;"/><path id="Path_2567" d="m61.79,98.79c0,1.62-1.31,2.93-2.93,2.93s-2.93-1.31-2.93-2.93,1.31-2.93,2.93-2.93h0c1.62,0,2.93,1.31,2.93,2.93Z" style="fill:none; stroke:#000; stroke-width:.5px;"/><rect id="Rectangle_6282" x="42.21" y="98.79" width="34.2" height="2.92" transform="translate(-19.68 14.65) rotate(-12.09)" style="fill:#fff;"/><rect id="Rectangle_6283" x="42.21" y="98.79" width="34.2" height="2.92" transform="translate(-19.68 14.65) rotate(-12.09)" style="fill:none; stroke:#000; stroke-miterlimit:4; stroke-width:.5px;"/><path id="Path_2568" d="m77.64,102.69c-.94,0-1.7-.76-1.7-1.7s.76-1.7,1.7-1.7,1.7.76,1.7,1.7h0c0,.94-.76,1.7-1.7,1.7" style="fill:#fff;"/><path id="Path_2569" d="m77.64,99.54c.8,0,1.45.65,1.45,1.45s-.65,1.45-1.45,1.45-1.45-.65-1.45-1.45h0c0-.8.65-1.45,1.45-1.45m0-.5c-1.08,0-1.95.87-1.95,1.95s.87,1.95,1.95,1.95,1.95-.87,1.95-1.95h0c0-1.08-.87-1.95-1.95-1.95h0"/><rect id="Rectangle_6284" x="73.98" y=".79" width="7.31" height="91.18" style="fill:#fff;"/><rect id="Rectangle_6285" x="73.98" y=".79" width="7.31" height="91.18" style="fill:none; stroke:#000; stroke-width:.5px;"/><rect id="Rectangle_6286" x="40.82" y=".79" width="33.15" height="1.01" style="fill:#fff;"/><rect id="Rectangle_6287" x="40.82" y=".79" width="33.15" height="1.01" style="fill:none; stroke:#000; stroke-width:.5px;"/><rect id="Rectangle_6288" x="40.82" y="23.34" width="33.15" height="1.01" style="fill:#fff;"/><rect id="Rectangle_6289" x="40.82" y="23.34" width="33.15" height="1.01" style="fill:none; stroke:#000; stroke-width:.5px;"/><rect id="Rectangle_6290" x="40.82" y="45.89" width="33.15" height="1.01" style="fill:#fff;"/><rect id="Rectangle_6291" x="40.82" y="45.89" width="33.15" height="1.01" style="fill:none; stroke:#000; stroke-width:.5px;"/><rect id="Rectangle_6292" x="40.82" y="68.44" width="33.15" height="1.01" style="fill:#fff;"/><rect id="Rectangle_6293" x="40.82" y="68.44" width="33.15" height="1.01" style="fill:none; stroke:#000; stroke-width:.5px;"/><rect id="Rectangle_6294" x="40.82" y="90.99" width="33.15" height="1.01" style="fill:#fff;"/><rect id="Rectangle_6295" x="40.82" y="90.99" width="33.15" height="1.01" style="fill:none; stroke:#000; stroke-width:.5px;"/><path id="Path_2570" d="m73,4.45c0,1.21-.98,2.19-2.19,2.19s-2.19-.98-2.19-2.19.98-2.19,2.19-2.19h0c1.21,0,2.19.98,2.19,2.19" style="fill:#fff;"/><circle id="Ellipse_68" cx="70.81" cy="4.45" r="2.19" style="fill:none; stroke:#000; stroke-width:.5px;"/><path id="Path_2571" d="m73,9.81c0,1.21-.98,2.19-2.19,2.19s-2.19-.98-2.19-2.19.98-2.19,2.19-2.19h0c1.21,0,2.19.98,2.19,2.19" style="fill:#fff;"/><circle id="Ellipse_69" cx="70.81" cy="9.81" r="2.19" style="fill:none; stroke:#000; stroke-width:.5px;"/><path id="Path_2572" d="m73,15.18c0,1.21-.98,2.19-2.19,2.19s-2.19-.98-2.19-2.19.98-2.19,2.19-2.19,2.19.98,2.19,2.19h0" style="fill:#fff;"/><circle id="Ellipse_70" cx="70.81" cy="15.18" r="2.19" style="fill:none; stroke:#000; stroke-width:.5px;"/><path id="Path_2573" d="m73,20.54c0,1.21-.98,2.19-2.19,2.19s-2.19-.98-2.19-2.19.98-2.19,2.19-2.19h0c1.21,0,2.19.98,2.19,2.19" style="fill:#fff;"/><circle id="Ellipse_71" cx="70.81" cy="20.54" r="2.19" style="fill:none; stroke:#000; stroke-width:.5px;"/><path id="Path_2574" d="m67.64,4.45c0,1.21-.98,2.19-2.19,2.19s-2.19-.98-2.19-2.19.98-2.19,2.19-2.19,2.19.98,2.19,2.19h0" style="fill:#fff;"/><circle id="Ellipse_72" cx="65.45" cy="4.45" r="2.19" style="fill:none; stroke:#000; stroke-width:.5px;"/><path id="Path_2575" d="m67.64,9.81c0,1.21-.98,2.19-2.19,2.19s-2.19-.98-2.19-2.19.98-2.19,2.19-2.19,2.19.98,2.19,2.19h0" style="fill:#fff;"/><circle id="Ellipse_73" cx="65.45" cy="9.81" r="2.19" style="fill:none; stroke:#000; stroke-width:.5px;"/><path id="Path_2576" d="m67.64,15.18c0,1.21-.98,2.19-2.19,2.19s-2.19-.98-2.19-2.19.98-2.19,2.19-2.19,2.19.98,2.19,2.19h0" style="fill:#fff;"/><circle id="Ellipse_74" cx="65.45" cy="15.18" r="2.19" style="fill:none; stroke:#000; stroke-width:.5px;"/><path id="Path_2577" d="m67.64,20.54c0,1.21-.98,2.19-2.19,2.19s-2.19-.98-2.19-2.19.98-2.19,2.19-2.19h0c1.21,0,2.19.98,2.19,2.19" style="fill:#fff;"/><circle id="Ellipse_75" cx="65.45" cy="20.54" r="2.19" style="fill:none; stroke:#000; stroke-width:.5px;"/><path id="Path_2578" d="m62.28,4.45c0,1.21-.98,2.19-2.19,2.19s-2.19-.98-2.19-2.19.98-2.19,2.19-2.19,2.19.98,2.19,2.19h0" style="fill:#fff;"/><circle id="Ellipse_76" cx="60.08" cy="4.45" r="2.19" style="fill:none; stroke:#000; stroke-width:.5px;"/><path id="Path_2579" d="m62.28,9.81c0,1.21-.98,2.19-2.19,2.19s-2.19-.98-2.19-2.19.98-2.19,2.19-2.19,2.19.98,2.19,2.19h0" style="fill:#fff;"/><circle id="Ellipse_77" cx="60.08" cy="9.81" r="2.19" style="fill:none; stroke:#000; stroke-width:.5px;"/><path id="Path_2580" d="m62.28,15.18c0,1.21-.98,2.19-2.19,2.19s-2.19-.98-2.19-2.19.98-2.19,2.19-2.19,2.19.98,2.19,2.19h0" style="fill:#fff;"/><circle id="Ellipse_78" cx="60.08" cy="15.18" r="2.19" style="fill:none; stroke:#000; stroke-width:.5px;"/><path id="Path_2581" d="m62.28,20.54c0,1.21-.98,2.19-2.19,2.19s-2.19-.98-2.19-2.19.98-2.19,2.19-2.19h0c1.21,0,2.19.98,2.19,2.19" style="fill:#fff;"/><circle id="Ellipse_79" cx="60.08" cy="20.54" r="2.19" style="fill:none; stroke:#000; stroke-width:.5px;"/><rect id="Rectangle_6296" x="42.29" y="3.23" width="2.44" height="6.34" style="fill:#fff;"/><rect id="Rectangle_6297" x="42.29" y="3.23" width="2.44" height="6.34" style="fill:none; stroke:#000; stroke-width:.5px;"/><rect id="Rectangle_6298" x="44.72" y="3.23" width="2.44" height="6.34" style="fill:#fff;"/><rect id="Rectangle_6299" x="44.72" y="3.23" width="2.44" height="6.34" style="fill:none; stroke:#000; stroke-width:.5px;"/><rect id="Rectangle_6300" x="47.16" y="3.23" width="2.44" height="6.34" style="fill:#fff;"/><rect id="Rectangle_6301" x="47.16" y="3.23" width="2.44" height="6.34" style="fill:none; stroke:#000; stroke-width:.5px;"/><rect id="Rectangle_6302" x="49.6" y="3.23" width="2.44" height="6.34" style="fill:#fff;"/><rect id="Rectangle_6303" x="49.6" y="3.23" width="2.44" height="6.34" style="fill:none; stroke:#000; stroke-width:.5px;"/><rect id="Rectangle_6304" x="52.04" y="3.23" width="2.44" height="6.34" style="fill:#fff;"/><rect id="Rectangle_6305" x="52.04" y="3.23" width="2.44" height="6.34" style="fill:none; stroke:#000; stroke-width:.5px;"/><rect id="Rectangle_6306" x="42.29" y="9.57" width="2.44" height="6.34" style="fill:#fff;"/><rect id="Rectangle_6307" x="42.29" y="9.57" width="2.44" height="6.34" style="fill:none; stroke:#000; stroke-width:.5px;"/><rect id="Rectangle_6308" x="44.72" y="9.57" width="2.44" height="6.34" style="fill:#fff;"/><rect id="Rectangle_6309" x="44.72" y="9.57" width="2.44" height="6.34" style="fill:none; stroke:#000; stroke-width:.5px;"/><rect id="Rectangle_6310" x="47.16" y="9.57" width="2.44" height="6.34" style="fill:#fff;"/><rect id="Rectangle_6311" x="47.16" y="9.57" width="2.44" height="6.34" style="fill:none; stroke:#000; stroke-width:.5px;"/><rect id="Rectangle_6312" x="49.6" y="9.57" width="2.44" height="6.34" style="fill:#fff;"/><rect id="Rectangle_6313" x="49.6" y="9.57" width="2.44" height="6.34" style="fill:none; stroke:#000; stroke-width:.5px;"/><rect id="Rectangle_6314" x="52.04" y="9.57" width="2.44" height="6.34" style="fill:#fff;"/><rect id="Rectangle_6315" x="52.04" y="9.57" width="2.44" height="6.34" style="fill:none; stroke:#000; stroke-width:.5px;"/><rect id="Rectangle_6316" x="42.29" y="15.91" width="2.44" height="6.34" style="fill:#fff;"/><rect id="Rectangle_6317" x="42.29" y="15.91" width="2.44" height="6.34" style="fill:none; stroke:#000; stroke-width:.5px;"/><rect id="Rectangle_6318" x="44.72" y="15.91" width="2.44" height="6.34" style="fill:#fff;"/><rect id="Rectangle_6319" x="44.72" y="15.91" width="2.44" height="6.34" style="fill:none; stroke:#000; stroke-width:.5px;"/><rect id="Rectangle_6320" x="47.16" y="15.91" width="2.44" height="6.34" style="fill:#fff;"/><rect id="Rectangle_6321" x="47.16" y="15.91" width="2.44" height="6.34" style="fill:none; stroke:#000; stroke-width:.5px;"/><rect id="Rectangle_6322" x="49.6" y="15.91" width="2.44" height="6.34" style="fill:#fff;"/><rect id="Rectangle_6323" x="49.6" y="15.91" width="2.44" height="6.34" style="fill:none; stroke:#000; stroke-width:.5px;"/><rect id="Rectangle_6324" x="52.04" y="15.91" width="2.44" height="6.34" style="fill:#fff;"/><rect id="Rectangle_6325" x="52.04" y="15.91" width="2.44" height="6.34" style="fill:none; stroke:#000; stroke-width:.5px;"/><rect id="Rectangle_6326" x="42.29" y="25.42" width="3.71" height="6.5" style="fill:#fff;"/><rect id="Rectangle_6327" x="42.29" y="25.42" width="3.71" height="6.5" style="fill:none; stroke:#000; stroke-width:.5px;"/><rect id="Rectangle_6328" x="45.99" y="25.42" width="3.71" height="6.5" style="fill:#fff;"/><rect id="Rectangle_6329" x="45.99" y="25.42" width="3.71" height="6.5" style="fill:none; stroke:#000; stroke-width:.5px;"/><rect id="Rectangle_6330" x="49.7" y="25.42" width="3.71" height="6.5" style="fill:#fff;"/><rect id="Rectangle_6331" x="49.7" y="25.42" width="3.71" height="6.5" style="fill:none; stroke:#000; stroke-width:.5px;"/><rect id="Rectangle_6332" x="53.41" y="25.42" width="3.71" height="6.5" style="fill:#fff;"/><rect id="Rectangle_6333" x="53.41" y="25.42" width="3.71" height="6.5" style="fill:none; stroke:#000; stroke-width:.5px;"/><rect id="Rectangle_6334" x="57.11" y="25.42" width="3.71" height="6.5" style="fill:#fff;"/><rect id="Rectangle_6335" x="57.11" y="25.42" width="3.71" height="6.5" style="fill:none; stroke:#000; stroke-width:.5px;"/><rect id="Rectangle_6336" x="42.29" y="31.92" width="3.71" height="6.5" style="fill:#fff;"/><rect id="Rectangle_6337" x="42.29" y="31.92" width="3.71" height="6.5" style="fill:none; stroke:#000; stroke-width:.5px;"/><rect id="Rectangle_6338" x="45.99" y="31.92" width="3.71" height="6.5" style="fill:#fff;"/><rect id="Rectangle_6339" x="45.99" y="31.92" width="3.71" height="6.5" style="fill:none; stroke:#000; stroke-width:.5px;"/><rect id="Rectangle_6340" x="49.7" y="31.92" width="3.71" height="6.5" style="fill:#fff;"/><rect id="Rectangle_6341" x="49.7" y="31.92" width="3.71" height="6.5" style="fill:none; stroke:#000; stroke-width:.5px;"/><rect id="Rectangle_6342" x="53.41" y="31.92" width="3.71" height="6.5" style="fill:#fff;"/><rect id="Rectangle_6343" x="53.41" y="31.92" width="3.71" height="6.5" style="fill:none; stroke:#000; stroke-width:.5px;"/><rect id="Rectangle_6344" x="57.11" y="31.92" width="3.71" height="6.5" style="fill:#fff;"/><rect id="Rectangle_6345" x="57.11" y="31.92" width="3.71" height="6.5" style="fill:none; stroke:#000; stroke-width:.5px;"/><rect id="Rectangle_6346" x="42.29" y="38.42" width="3.71" height="6.5" style="fill:#fff;"/><rect id="Rectangle_6347" x="42.29" y="38.42" width="3.71" height="6.5" style="fill:none; stroke:#000; stroke-width:.5px;"/><rect id="Rectangle_6348" x="45.99" y="38.42" width="3.71" height="6.5" style="fill:#fff;"/><rect id="Rectangle_6349" x="45.99" y="38.42" width="3.71" height="6.5" style="fill:none; stroke:#000; stroke-width:.5px;"/><rect id="Rectangle_6350" x="49.7" y="38.42" width="3.71" height="6.5" style="fill:#fff;"/><rect id="Rectangle_6351" x="49.7" y="38.42" width="3.71" height="6.5" style="fill:none; stroke:#000; stroke-width:.5px;"/><rect id="Rectangle_6352" x="53.41" y="38.42" width="3.71" height="6.5" style="fill:#fff;"/><rect id="Rectangle_6353" x="53.41" y="38.42" width="3.71" height="6.5" style="fill:none; stroke:#000; stroke-width:.5px;"/><rect id="Rectangle_6354" x="57.11" y="38.42" width="3.71" height="6.5" style="fill:#fff;"/><rect id="Rectangle_6355" x="57.11" y="38.42" width="3.71" height="6.5" style="fill:none; stroke:#000; stroke-width:.5px;"/><rect id="Rectangle_6356" x="53.25" y="25.42" width="3.71" height="6.5" style="fill:#fff;"/><rect id="Rectangle_6357" x="53.25" y="25.42" width="3.71" height="6.5" style="fill:none; stroke:#000; stroke-width:.5px;"/><rect id="Rectangle_6358" x="56.96" y="25.42" width="3.71" height="6.5" style="fill:#fff;"/><rect id="Rectangle_6359" x="56.96" y="25.42" width="3.71" height="6.5" style="fill:none; stroke:#000; stroke-width:.5px;"/><rect id="Rectangle_6360" x="60.66" y="25.42" width="3.71" height="6.5" style="fill:#fff;"/><rect id="Rectangle_6361" x="60.66" y="25.42" width="3.71" height="6.5" style="fill:none; stroke:#000; stroke-width:.5px;"/><rect id="Rectangle_6362" x="64.37" y="25.42" width="3.71" height="6.5" style="fill:#fff;"/><rect id="Rectangle_6363" x="64.37" y="25.42" width="3.71" height="6.5" style="fill:none; stroke:#000; stroke-width:.5px;"/><rect id="Rectangle_6364" x="68.08" y="25.42" width="3.71" height="6.5" style="fill:#fff;"/><rect id="Rectangle_6365" x="68.08" y="25.42" width="3.71" height="6.5" style="fill:none; stroke:#000; stroke-width:.5px;"/><rect id="Rectangle_6366" x="53.25" y="31.92" width="3.71" height="6.5" style="fill:#fff;"/><rect id="Rectangle_6367" x="53.25" y="31.92" width="3.71" height="6.5" style="fill:none; stroke:#000; stroke-width:.5px;"/><rect id="Rectangle_6368" x="56.96" y="31.92" width="3.71" height="6.5" style="fill:#fff;"/><rect id="Rectangle_6369" x="56.96" y="31.92" width="3.71" height="6.5" style="fill:none; stroke:#000; stroke-width:.5px;"/><rect id="Rectangle_6370" x="60.66" y="31.92" width="3.71" height="6.5" style="fill:#fff;"/><rect id="Rectangle_6371" x="60.66" y="31.92" width="3.71" height="6.5" style="fill:none; stroke:#000; stroke-width:.5px;"/><rect id="Rectangle_6372" x="64.37" y="31.92" width="3.71" height="6.5" style="fill:#fff;"/><rect id="Rectangle_6373" x="64.37" y="31.92" width="3.71" height="6.5" style="fill:none; stroke:#000; stroke-width:.5px;"/><rect id="Rectangle_6374" x="68.08" y="31.92" width="3.71" height="6.5" style="fill:#fff;"/><rect id="Rectangle_6375" x="68.08" y="31.92" width="3.71" height="6.5" style="fill:none; stroke:#000; stroke-width:.5px;"/><rect id="Rectangle_6376" x="53.25" y="38.42" width="3.71" height="6.5" style="fill:#fff;"/><rect id="Rectangle_6377" x="53.25" y="38.42" width="3.71" height="6.5" style="fill:none; stroke:#000; stroke-width:.5px;"/><rect id="Rectangle_6378" x="56.96" y="38.42" width="3.71" height="6.5" style="fill:#fff;"/><rect id="Rectangle_6379" x="56.96" y="38.42" width="3.71" height="6.5" style="fill:none; stroke:#000; stroke-width:.5px;"/><rect id="Rectangle_6380" x="60.66" y="38.42" width="3.71" height="6.5" style="fill:#fff;"/><rect id="Rectangle_6381" x="60.66" y="38.42" width="3.71" height="6.5" style="fill:none; stroke:#000; stroke-width:.5px;"/><rect id="Rectangle_6382" x="64.37" y="38.42" width="3.71" height="6.5" style="fill:#fff;"/><rect id="Rectangle_6383" x="64.37" y="38.42" width="3.71" height="6.5" style="fill:none; stroke:#000; stroke-width:.5px;"/><rect id="Rectangle_6384" x="68.08" y="38.42" width="3.71" height="6.5" style="fill:#fff;"/><rect id="Rectangle_6385" x="68.08" y="38.42" width="3.71" height="6.5" style="fill:none; stroke:#000; stroke-width:.5px;"/><rect id="Rectangle_6386" x="42.29" y="47.84" width="3.07" height="6.5" style="fill:#fff;"/><rect id="Rectangle_6387" x="42.29" y="47.84" width="3.07" height="6.5" style="fill:none; stroke:#000; stroke-width:.5px;"/><rect id="Rectangle_6388" x="45.35" y="47.84" width="3.07" height="6.5" style="fill:#fff;"/><rect id="Rectangle_6389" x="45.35" y="47.84" width="3.07" height="6.5" style="fill:none; stroke:#000; stroke-width:.5px;"/><rect id="Rectangle_6390" x="48.42" y="47.84" width="3.07" height="6.5" style="fill:#fff;"/><rect id="Rectangle_6391" x="48.42" y="47.84" width="3.07" height="6.5" style="fill:none; stroke:#000; stroke-width:.5px;"/><rect id="Rectangle_6392" x="51.49" y="47.84" width="3.07" height="6.5" style="fill:#fff;"/><rect id="Rectangle_6393" x="51.49" y="47.84" width="3.07" height="6.5" style="fill:none; stroke:#000; stroke-width:.5px;"/><rect id="Rectangle_6394" x="54.56" y="47.84" width="3.07" height="6.5" style="fill:#fff;"/><rect id="Rectangle_6395" x="54.56" y="47.84" width="3.07" height="6.5" style="fill:none; stroke:#000; stroke-width:.5px;"/><rect id="Rectangle_6396" x="42.29" y="54.34" width="3.07" height="6.5" style="fill:#fff;"/><rect id="Rectangle_6397" x="42.29" y="54.34" width="3.07" height="6.5" style="fill:none; stroke:#000; stroke-width:.5px;"/><rect id="Rectangle_6398" x="45.35" y="54.34" width="3.07" height="6.5" style="fill:#fff;"/><rect id="Rectangle_6399" x="45.35" y="54.34" width="3.07" height="6.5" style="fill:none; stroke:#000; stroke-width:.5px;"/><rect id="Rectangle_6400" x="48.42" y="54.34" width="3.07" height="6.5" style="fill:#fff;"/><rect id="Rectangle_6401" x="48.42" y="54.34" width="3.07" height="6.5" style="fill:none; stroke:#000; stroke-width:.5px;"/><rect id="Rectangle_6402" x="51.49" y="54.34" width="3.07" height="6.5" style="fill:#fff;"/><rect id="Rectangle_6403" x="51.49" y="54.34" width="3.07" height="6.5" style="fill:none; stroke:#000; stroke-width:.5px;"/><rect id="Rectangle_6404" x="54.56" y="54.34" width="3.07" height="6.5" style="fill:#fff;"/><rect id="Rectangle_6405" x="54.56" y="54.34" width="3.07" height="6.5" style="fill:none; stroke:#000; stroke-width:.5px;"/><rect id="Rectangle_6406" x="42.29" y="60.85" width="3.07" height="6.5" style="fill:#fff;"/><rect id="Rectangle_6407" x="42.29" y="60.85" width="3.07" height="6.5" style="fill:none; stroke:#000; stroke-width:.5px;"/><rect id="Rectangle_6408" x="45.35" y="60.85" width="3.07" height="6.5" style="fill:#fff;"/><rect id="Rectangle_6409" x="45.35" y="60.85" width="3.07" height="6.5" style="fill:none; stroke:#000; stroke-width:.5px;"/><rect id="Rectangle_6410" x="48.42" y="60.85" width="3.07" height="6.5" style="fill:#fff;"/><rect id="Rectangle_6411" x="48.42" y="60.85" width="3.07" height="6.5" style="fill:none; stroke:#000; stroke-width:.5px;"/><rect id="Rectangle_6412" x="51.49" y="60.85" width="3.07" height="6.5" style="fill:#fff;"/><rect id="Rectangle_6413" x="51.49" y="60.85" width="3.07" height="6.5" style="fill:none; stroke:#000; stroke-width:.5px;"/><rect id="Rectangle_6414" x="54.56" y="60.85" width="3.07" height="6.5" style="fill:#fff;"/><rect id="Rectangle_6415" x="54.56" y="60.85" width="3.07" height="6.5" style="fill:none; stroke:#000; stroke-width:.5px;"/><rect id="Rectangle_6416" x="57.42" y="47.84" width="3.07" height="6.5" style="fill:#fff;"/><rect id="Rectangle_6417" x="57.42" y="47.84" width="3.07" height="6.5" style="fill:none; stroke:#000; stroke-width:.5px;"/><rect id="Rectangle_6418" x="60.49" y="47.84" width="3.07" height="6.5" style="fill:#fff;"/><rect id="Rectangle_6419" x="60.49" y="47.84" width="3.07" height="6.5" style="fill:none; stroke:#000; stroke-width:.5px;"/><rect id="Rectangle_6420" x="63.55" y="47.84" width="3.07" height="6.5" style="fill:#fff;"/><rect id="Rectangle_6421" x="63.55" y="47.84" width="3.07" height="6.5" style="fill:none; stroke:#000; stroke-width:.5px;"/><rect id="Rectangle_6422" x="66.62" y="47.84" width="3.07" height="6.5" style="fill:#fff;"/><rect id="Rectangle_6423" x="66.62" y="47.84" width="3.07" height="6.5" style="fill:none; stroke:#000; stroke-width:.5px;"/><rect id="Rectangle_6424" x="69.69" y="47.84" width="3.07" height="6.5" style="fill:#fff;"/><rect id="Rectangle_6425" x="69.69" y="47.84" width="3.07" height="6.5" style="fill:none; stroke:#000; stroke-width:.5px;"/><rect id="Rectangle_6426" x="57.42" y="54.34" width="3.07" height="6.5" style="fill:#fff;"/><rect id="Rectangle_6427" x="57.42" y="54.34" width="3.07" height="6.5" style="fill:none; stroke:#000; stroke-width:.5px;"/><rect id="Rectangle_6428" x="60.49" y="54.34" width="3.07" height="6.5" style="fill:#fff;"/><rect id="Rectangle_6429" x="60.49" y="54.34" width="3.07" height="6.5" style="fill:none; stroke:#000; stroke-width:.5px;"/><rect id="Rectangle_6430" x="63.55" y="54.34" width="3.07" height="6.5" style="fill:#fff;"/><rect id="Rectangle_6431" x="63.55" y="54.34" width="3.07" height="6.5" style="fill:none; stroke:#000; stroke-width:.5px;"/><rect id="Rectangle_6432" x="66.62" y="54.34" width="3.07" height="6.5" style="fill:#fff;"/><rect id="Rectangle_6433" x="66.62" y="54.34" width="3.07" height="6.5" style="fill:none; stroke:#000; stroke-width:.5px;"/><rect id="Rectangle_6434" x="69.69" y="54.34" width="3.07" height="6.5" style="fill:#fff;"/><rect id="Rectangle_6435" x="69.69" y="54.34" width="3.07" height="6.5" style="fill:none; stroke:#000; stroke-width:.5px;"/><rect id="Rectangle_6436" x="57.42" y="60.85" width="3.07" height="6.5" style="fill:#fff;"/><rect id="Rectangle_6437" x="57.42" y="60.85" width="3.07" height="6.5" style="fill:none; stroke:#000; stroke-width:.5px;"/><rect id="Rectangle_6438" x="60.49" y="60.85" width="3.07" height="6.5" style="fill:#fff;"/><rect id="Rectangle_6439" x="60.49" y="60.85" width="3.07" height="6.5" style="fill:none; stroke:#000; stroke-width:.5px;"/><rect id="Rectangle_6440" x="63.55" y="60.85" width="3.07" height="6.5" style="fill:#fff;"/><rect id="Rectangle_6441" x="63.55" y="60.85" width="3.07" height="6.5" style="fill:none; stroke:#000; stroke-width:.5px;"/><rect id="Rectangle_6442" x="66.62" y="60.85" width="3.07" height="6.5" style="fill:#fff;"/><rect id="Rectangle_6443" x="66.62" y="60.85" width="3.07" height="6.5" style="fill:none; stroke:#000; stroke-width:.5px;"/><rect id="Rectangle_6444" x="69.69" y="60.85" width="3.07" height="6.5" style="fill:#fff;"/><rect id="Rectangle_6445" x="69.69" y="60.85" width="3.07" height="6.5" style="fill:none; stroke:#000; stroke-width:.5px;"/><rect id="Rectangle_6446" x="42.29" y="70.27" width="3.07" height="5.03" style="fill:#fff;"/><rect id="Rectangle_6447" x="42.29" y="70.27" width="3.07" height="5.03" style="fill:none; stroke:#000; stroke-width:.5px;"/><rect id="Rectangle_6448" x="45.35" y="70.27" width="3.07" height="5.03" style="fill:#fff;"/><rect id="Rectangle_6449" x="45.35" y="70.27" width="3.07" height="5.03" style="fill:none; stroke:#000; stroke-width:.5px;"/><rect id="Rectangle_6450" x="48.42" y="70.27" width="3.07" height="5.03" style="fill:#fff;"/><rect id="Rectangle_6451" x="48.42" y="70.27" width="3.07" height="5.03" style="fill:none; stroke:#000; stroke-width:.5px;"/><rect id="Rectangle_6452" x="51.49" y="70.27" width="3.07" height="5.03" style="fill:#fff;"/><rect id="Rectangle_6453" x="51.49" y="70.27" width="3.07" height="5.03" style="fill:none; stroke:#000; stroke-width:.5px;"/><rect id="Rectangle_6454" x="54.56" y="70.27" width="3.07" height="5.03" style="fill:#fff;"/><rect id="Rectangle_6455" x="54.56" y="70.27" width="3.07" height="5.03" style="fill:none; stroke:#000; stroke-width:.5px;"/><rect id="Rectangle_6456" x="42.29" y="75.3" width="3.07" height="5.03" style="fill:#fff;"/><rect id="Rectangle_6457" x="42.29" y="75.3" width="3.07" height="5.03" style="fill:none; stroke:#000; stroke-width:.5px;"/><rect id="Rectangle_6458" x="45.35" y="75.3" width="3.07" height="5.03" style="fill:#fff;"/><rect id="Rectangle_6459" x="45.35" y="75.3" width="3.07" height="5.03" style="fill:none; stroke:#000; stroke-width:.5px;"/><rect id="Rectangle_6460" x="48.42" y="75.3" width="3.07" height="5.03" style="fill:#fff;"/><rect id="Rectangle_6461" x="48.42" y="75.3" width="3.07" height="5.03" style="fill:none; stroke:#000; stroke-width:.5px;"/><rect id="Rectangle_6462" x="51.49" y="75.3" width="3.07" height="5.03" style="fill:#fff;"/><rect id="Rectangle_6463" x="51.49" y="75.3" width="3.07" height="5.03" style="fill:none; stroke:#000; stroke-width:.5px;"/><rect id="Rectangle_6464" x="54.56" y="75.3" width="3.07" height="5.03" style="fill:#fff;"/><rect id="Rectangle_6465" x="54.56" y="75.3" width="3.07" height="5.03" style="fill:none; stroke:#000; stroke-width:.5px;"/><rect id="Rectangle_6466" x="42.29" y="80.33" width="3.07" height="5.03" style="fill:#fff;"/><rect id="Rectangle_6467" x="42.29" y="80.33" width="3.07" height="5.03" style="fill:none; stroke:#000; stroke-width:.5px;"/><rect id="Rectangle_6468" x="45.35" y="80.33" width="3.07" height="5.03" style="fill:#fff;"/><rect id="Rectangle_6469" x="45.35" y="80.33" width="3.07" height="5.03" style="fill:none; stroke:#000; stroke-width:.5px;"/><rect id="Rectangle_6470" x="48.42" y="80.33" width="3.07" height="5.03" style="fill:#fff;"/><rect id="Rectangle_6471" x="48.42" y="80.33" width="3.07" height="5.03" style="fill:none; stroke:#000; stroke-width:.5px;"/><rect id="Rectangle_6472" x="51.49" y="80.33" width="3.07" height="5.03" style="fill:#fff;"/><rect id="Rectangle_6473" x="51.49" y="80.33" width="3.07" height="5.03" style="fill:none; stroke:#000; stroke-width:.5px;"/><rect id="Rectangle_6474" x="54.56" y="80.33" width="3.07" height="5.03" style="fill:#fff;"/><rect id="Rectangle_6475" x="54.56" y="80.33" width="3.07" height="5.03" style="fill:none; stroke:#000; stroke-width:.5px;"/><rect id="Rectangle_6476" x="57.42" y="70.27" width="3.07" height="5.03" style="fill:#fff;"/><rect id="Rectangle_6477" x="57.42" y="70.27" width="3.07" height="5.03" style="fill:none; stroke:#000; stroke-width:.5px;"/><rect id="Rectangle_6478" x="60.49" y="70.27" width="3.07" height="5.03" style="fill:#fff;"/><rect id="Rectangle_6479" x="60.49" y="70.27" width="3.07" height="5.03" style="fill:none; stroke:#000; stroke-width:.5px;"/><rect id="Rectangle_6480" x="63.55" y="70.27" width="3.07" height="5.03" style="fill:#fff;"/><rect id="Rectangle_6481" x="63.55" y="70.27" width="3.07" height="5.03" style="fill:none; stroke:#000; stroke-width:.5px;"/><rect id="Rectangle_6482" x="66.62" y="70.27" width="3.07" height="5.03" style="fill:#fff;"/><rect id="Rectangle_6483" x="66.62" y="70.27" width="3.07" height="5.03" style="fill:none; stroke:#000; stroke-width:.5px;"/><rect id="Rectangle_6484" x="69.69" y="70.27" width="3.07" height="5.03" style="fill:#fff;"/><rect id="Rectangle_6485" x="69.69" y="70.27" width="3.07" height="5.03" style="fill:none; stroke:#000; stroke-width:.5px;"/><rect id="Rectangle_6486" x="57.42" y="75.3" width="3.07" height="5.03" style="fill:#fff;"/><rect id="Rectangle_6487" x="57.42" y="75.3" width="3.07" height="5.03" style="fill:none; stroke:#000; stroke-width:.5px;"/><rect id="Rectangle_6488" x="60.49" y="75.3" width="3.07" height="5.03" style="fill:#fff;"/><rect id="Rectangle_6489" x="60.49" y="75.3" width="3.07" height="5.03" style="fill:none; stroke:#000; stroke-width:.5px;"/><rect id="Rectangle_6490" x="63.55" y="75.3" width="3.07" height="5.03" style="fill:#fff;"/><rect id="Rectangle_6491" x="63.55" y="75.3" width="3.07" height="5.03" style="fill:none; stroke:#000; stroke-width:.5px;"/><rect id="Rectangle_6492" x="66.62" y="75.3" width="3.07" height="5.03" style="fill:#fff;"/><rect id="Rectangle_6493" x="66.62" y="75.3" width="3.07" height="5.03" style="fill:none; stroke:#000; stroke-width:.5px;"/><rect id="Rectangle_6494" x="69.69" y="75.3" width="3.07" height="5.03" style="fill:#fff;"/><rect id="Rectangle_6495" x="69.69" y="75.3" width="3.07" height="5.03" style="fill:none; stroke:#000; stroke-width:.5px;"/><rect id="Rectangle_6496" x="57.42" y="80.33" width="3.07" height="5.03" style="fill:#fff;"/><rect id="Rectangle_6497" x="57.42" y="80.33" width="3.07" height="5.03" style="fill:none; stroke:#000; stroke-width:.5px;"/><rect id="Rectangle_6498" x="60.49" y="80.33" width="3.07" height="5.03" style="fill:#fff;"/><rect id="Rectangle_6499" x="60.49" y="80.33" width="3.07" height="5.03" style="fill:none; stroke:#000; stroke-width:.5px;"/><rect id="Rectangle_6500" x="63.55" y="80.33" width="3.07" height="5.03" style="fill:#fff;"/><rect id="Rectangle_6501" x="63.55" y="80.33" width="3.07" height="5.03" style="fill:none; stroke:#000; stroke-width:.5px;"/><rect id="Rectangle_6502" x="66.62" y="80.33" width="3.07" height="5.03" style="fill:#fff;"/><rect id="Rectangle_6503" x="66.62" y="80.33" width="3.07" height="5.03" style="fill:none; stroke:#000; stroke-width:.5px;"/><rect id="Rectangle_6504" x="69.69" y="80.33" width="3.07" height="5.03" style="fill:#fff;"/><rect id="Rectangle_6505" x="69.69" y="80.33" width="3.07" height="5.03" style="fill:none; stroke:#000; stroke-width:.5px;"/><rect id="Rectangle_6506" x="42.29" y="75.18" width="3.07" height="5.03" style="fill:#fff;"/><rect id="Rectangle_6507" x="42.29" y="75.18" width="3.07" height="5.03" style="fill:none; stroke:#000; stroke-width:.5px;"/><rect id="Rectangle_6508" x="45.35" y="75.18" width="3.07" height="5.03" style="fill:#fff;"/><rect id="Rectangle_6509" x="45.35" y="75.18" width="3.07" height="5.03" style="fill:none; stroke:#000; stroke-width:.5px;"/><rect id="Rectangle_6510" x="48.42" y="75.18" width="3.07" height="5.03" style="fill:#fff;"/><rect id="Rectangle_6511" x="48.42" y="75.18" width="3.07" height="5.03" style="fill:none; stroke:#000; stroke-width:.5px;"/><rect id="Rectangle_6512" x="51.49" y="75.18" width="3.07" height="5.03" style="fill:#fff;"/><rect id="Rectangle_6513" x="51.49" y="75.18" width="3.07" height="5.03" style="fill:none; stroke:#000; stroke-width:.5px;"/><rect id="Rectangle_6514" x="54.56" y="75.18" width="3.07" height="5.03" style="fill:#fff;"/><rect id="Rectangle_6515" x="54.56" y="75.18" width="3.07" height="5.03" style="fill:none; stroke:#000; stroke-width:.5px;"/><rect id="Rectangle_6516" x="42.29" y="80.2" width="3.07" height="5.03" style="fill:#fff;"/><rect id="Rectangle_6517" x="42.29" y="80.2" width="3.07" height="5.03" style="fill:none; stroke:#000; stroke-width:.5px;"/><rect id="Rectangle_6518" x="45.35" y="80.2" width="3.07" height="5.03" style="fill:#fff;"/><rect id="Rectangle_6519" x="45.35" y="80.2" width="3.07" height="5.03" style="fill:none; stroke:#000; stroke-width:.5px;"/><rect id="Rectangle_6520" x="48.42" y="80.2" width="3.07" height="5.03" style="fill:#fff;"/><rect id="Rectangle_6521" x="48.42" y="80.2" width="3.07" height="5.03" style="fill:none; stroke:#000; stroke-width:.5px;"/><rect id="Rectangle_6522" x="51.49" y="80.2" width="3.07" height="5.03" style="fill:#fff;"/><rect id="Rectangle_6523" x="51.49" y="80.2" width="3.07" height="5.03" style="fill:none; stroke:#000; stroke-width:.5px;"/><rect id="Rectangle_6524" x="54.56" y="80.2" width="3.07" height="5.03" style="fill:#fff;"/><rect id="Rectangle_6525" x="54.56" y="80.2" width="3.07" height="5.03" style="fill:none; stroke:#000; stroke-width:.5px;"/><rect id="Rectangle_6526" x="42.29" y="85.23" width="3.07" height="5.03" style="fill:#fff;"/><rect id="Rectangle_6527" x="42.29" y="85.23" width="3.07" height="5.03" style="fill:none; stroke:#000; stroke-width:.5px;"/><rect id="Rectangle_6528" x="45.35" y="85.23" width="3.07" height="5.03" style="fill:#fff;"/><rect id="Rectangle_6529" x="45.35" y="85.23" width="3.07" height="5.03" style="fill:none; stroke:#000; stroke-width:.5px;"/><rect id="Rectangle_6530" x="48.42" y="85.23" width="3.07" height="5.03" style="fill:#fff;"/><rect id="Rectangle_6531" x="48.42" y="85.23" width="3.07" height="5.03" style="fill:none; stroke:#000; stroke-width:.5px;"/><rect id="Rectangle_6532" x="51.49" y="85.23" width="3.07" height="5.03" style="fill:#fff;"/><rect id="Rectangle_6533" x="51.49" y="85.23" width="3.07" height="5.03" style="fill:none; stroke:#000; stroke-width:.5px;"/><rect id="Rectangle_6534" x="54.56" y="85.23" width="3.07" height="5.03" style="fill:#fff;"/><rect id="Rectangle_6535" x="54.56" y="85.23" width="3.07" height="5.03" style="fill:none; stroke:#000; stroke-width:.5px;"/><rect id="Rectangle_6536" x="57.42" y="75.18" width="3.07" height="5.03" style="fill:#fff;"/><rect id="Rectangle_6537" x="57.42" y="75.18" width="3.07" height="5.03" style="fill:none; stroke:#000; stroke-width:.5px;"/><rect id="Rectangle_6538" x="60.49" y="75.18" width="3.07" height="5.03" style="fill:#fff;"/><rect id="Rectangle_6539" x="60.49" y="75.18" width="3.07" height="5.03" style="fill:none; stroke:#000; stroke-width:.5px;"/><rect id="Rectangle_6540" x="63.55" y="75.18" width="3.07" height="5.03" style="fill:#fff;"/><rect id="Rectangle_6541" x="63.55" y="75.18" width="3.07" height="5.03" style="fill:none; stroke:#000; stroke-width:.5px;"/><rect id="Rectangle_6542" x="66.62" y="75.18" width="3.07" height="5.03" style="fill:#fff;"/><rect id="Rectangle_6543" x="66.62" y="75.18" width="3.07" height="5.03" style="fill:none; stroke:#000; stroke-width:.5px;"/><rect id="Rectangle_6544" x="69.69" y="75.18" width="3.07" height="5.03" style="fill:#fff;"/><rect id="Rectangle_6545" x="69.69" y="75.18" width="3.07" height="5.03" style="fill:none; stroke:#000; stroke-width:.5px;"/><rect id="Rectangle_6546" x="57.42" y="80.2" width="3.07" height="5.03" style="fill:#fff;"/><rect id="Rectangle_6547" x="57.42" y="80.2" width="3.07" height="5.03" style="fill:none; stroke:#000; stroke-width:.5px;"/><rect id="Rectangle_6548" x="60.49" y="80.2" width="3.07" height="5.03" style="fill:#fff;"/><rect id="Rectangle_6549" x="60.49" y="80.2" width="3.07" height="5.03" style="fill:none; stroke:#000; stroke-width:.5px;"/><rect id="Rectangle_6550" x="63.55" y="80.2" width="3.07" height="5.03" style="fill:#fff;"/><rect id="Rectangle_6551" x="63.55" y="80.2" width="3.07" height="5.03" style="fill:none; stroke:#000; stroke-width:.5px;"/><rect id="Rectangle_6552" x="66.62" y="80.2" width="3.07" height="5.03" style="fill:#fff;"/><rect id="Rectangle_6553" x="66.62" y="80.2" width="3.07" height="5.03" style="fill:none; stroke:#000; stroke-width:.5px;"/><rect id="Rectangle_6554" x="69.69" y="80.2" width="3.07" height="5.03" style="fill:#fff;"/><rect id="Rectangle_6555" x="69.69" y="80.2" width="3.07" height="5.03" style="fill:none; stroke:#000; stroke-width:.5px;"/><rect id="Rectangle_6556" x="57.42" y="85.23" width="3.07" height="5.03" style="fill:#fff;"/><rect id="Rectangle_6557" x="57.42" y="85.23" width="3.07" height="5.03" style="fill:none; stroke:#000; stroke-width:.5px;"/><rect id="Rectangle_6558" x="60.49" y="85.23" width="3.07" height="5.03" style="fill:#fff;"/><rect id="Rectangle_6559" x="60.49" y="85.23" width="3.07" height="5.03" style="fill:none; stroke:#000; stroke-width:.5px;"/><rect id="Rectangle_6560" x="63.55" y="85.23" width="3.07" height="5.03" style="fill:#fff;"/><rect id="Rectangle_6561" x="63.55" y="85.23" width="3.07" height="5.03" style="fill:none; stroke:#000; stroke-width:.5px;"/><rect id="Rectangle_6562" x="66.62" y="85.23" width="3.07" height="5.03" style="fill:#fff;"/><rect id="Rectangle_6563" x="66.62" y="85.23" width="3.07" height="5.03" style="fill:none; stroke:#000; stroke-width:.5px;"/><rect id="Rectangle_6564" x="69.69" y="85.23" width="3.07" height="5.03" style="fill:#fff;"/><rect id="Rectangle_6565" x="69.69" y="85.23" width="3.07" height="5.03" style="fill:none; stroke:#000; stroke-width:.5px;"/><path id="Path_2582" d="m81.29.79H.84v175.53l10.73,31.2h69.47v-31.2l-40.26-.3v-66h40.5V.79h.01Z" style="fill:none; stroke:#000;"/></g></g></g></svg>